<?xml version="1.0" encoding="UTF-8"?>
<svg id="_Слой_2" data-name="Слой 2" xmlns="http://www.w3.org/2000/svg" viewBox="0 0 222.07 216.23">
  <defs>
    <style>
      .cls-1 {
        stroke-width: 1.03px;
      }

      .cls-1, .cls-2, .cls-3 {
        stroke: #fdebe8;
      }

      .cls-1, .cls-2, .cls-3, .cls-4 {
        fill: none;
        stroke-linecap: round;
        stroke-linejoin: round;
      }

      .cls-5 {
        opacity: .36;
      }

      .cls-5, .cls-6, .cls-7 {
        fill: #b4e2e0;
      }

      .cls-2 {
        stroke-width: 1.04px;
      }

      .cls-8 {
        fill: #fff;
      }

      .cls-7 {
        opacity: .2;
      }

      .cls-9 {
        fill: #76b38a;
      }

      .cls-3 {
        stroke-width: 1.3px;
      }

      .cls-10 {
        fill: #fdc0cc;
      }

      .cls-4 {
        stroke: #172c45;
        stroke-width: .7px;
      }

      .cls-11 {
        opacity: .39;
      }

      .cls-12 {
        fill: #fe9e5b;
      }

      .cls-13 {
        fill: #fdebe8;
      }

      .cls-14 {
        fill: #172c45;
      }
    </style>
  </defs>
  <g id="OBJECTS">
    <g>
      <path class="cls-8" d="M113.94,216.23c-2.37,0-4.84-.09-7.34-.25-.86-.06-1.68-.12-2.49-.2l-.28-.02c-.75-.07-1.5-.15-2.25-.23l-.43-.05c-.73-.09-1.43-.18-2.13-.27l-.57-.08c-.67-.1-1.32-.2-1.98-.3l-.65-.11c-.66-.11-1.29-.22-1.92-.34l-.73-.14c-.61-.12-1.22-.24-1.82-.37l-.79-.17c-.58-.13-1.17-.26-1.76-.4l-.8-.2c-.58-.14-1.15-.29-1.72-.44l-.83-.23c-.56-.15-1.12-.31-1.67-.47l-.84-.25c-.55-.16-1.1-.33-1.64-.5l-.85-.28c-.58-.19-1.09-.36-1.6-.53l-1.06-.38c-.46-.16-.92-.32-1.38-.49-.23-.09-1.32-.51-1.32-.51-.36-.14-.72-.27-1.07-.41-.79-.31-1.58-.64-2.37-.97-11.06-4.71-21.2-11.19-30.15-19.27-7.79-7.05-14.51-15.16-19.95-24.12-2.21-3.61-4.23-7.4-5.99-11.25-.61-1.35-1.1-2.47-1.53-3.53-.01-.03-.28-.72-.28-.72-1.14-2.79-2.16-5.67-3.07-8.59-2.17-.13-3.5-1.27-4.11-1.96-1.07-1.21-1.59-2.89-1.39-4.49.04-.31.1-.67.21-1.08-2.38-.91-3.8-2.1-4.65-3.73-.94-1.8-.95-3.87-.04-5.68.9-1.79,2.31-2.81,5.71-4.11-.28-2.74-.45-5.49-.52-8.21-.03-.89-.04-1.83-.04-2.77,0-5.46.41-10.93,1.22-16.28.07-.47.15-.99.25-1.5,1.65-10,4.71-19.72,9.11-28.9,1.36-2.85,2.87-5.67,4.49-8.39.23-.4.5-.85.77-1.29,4.82-7.89,10.67-15.17,17.39-21.61,1.82-1.76,3.75-3.49,5.73-5.13,1.8-1.5,3.62-2.92,5.41-4.22.29-.22.59-.44.89-.65l.08-.06c2.75-1.96,5.62-3.81,8.54-5.51,4.44-2.59,9.1-4.87,13.84-6.76,6.14-2.49,12.6-4.42,19.17-5.73,6.91-1.39,14.06-2.09,21.23-2.09,4.16,0,8.28.23,12.26.7,10.89,1.23,21.48,4.1,31.53,8.56,2.43-.63,5-.95,7.65-.95,1.56,0,3.16.11,4.75.34.1.01.46.06.54.07.67.11,1.33.23,1.99.36,2.7.58,5.29,1.45,7.77,2.6.14.06.28.12.41.19.94.44,1.95.98,3.01,1.6.02,0,.27.16.36.22,2.2,1.34,4.28,2.91,6.19,4.66,0,0,.24.21.26.24,1.77,1.66,3.38,3.48,4.78,5.4l.21.28c.93,1.31,1.73,2.57,2.41,3.83.11.19.21.37.3.55.88,1.66,1.62,3.37,2.22,5.08,1.57,4.54,2.2,9.17,2.55,13.25,4.28,6.23,7.89,12.87,10.76,19.78,5.27,12.71,8.03,26.19,8.19,40.07,0,.39,0,.84,0,1.3,0,2.56-.09,5.13-.27,7.65-.48,6.9-1.62,13.76-3.4,20.37l-.36,1.31c-.07.25-.15.51-.23.76-.5,1.75-1.07,3.53-1.69,5.31-.21.63-.46,1.32-.72,2.02l-.26.71c-.18.48-.38,1.01-.59,1.52l-.13.32c-.72,1.81-1.48,3.56-2.25,5.23-.09.22-.2.44-.3.65-.06.13-.12.26-.19.4-2.35,4.98-5.12,9.83-8.24,14.41-3.15,4.64-6.7,9.08-10.55,13.2l-.14.15c-.14.15-.28.3-.42.44-1.44,1.52-2.95,3.02-4.48,4.45-.48.45-.94.88-1.41,1.29-3.05,2.77-6.28,5.38-9.6,7.75-2.5,1.79-5.08,3.48-7.65,5.01-.17.1-1.11.66-1.14.67-.79.46-1.59.91-2.4,1.35l-.19.1c-.74.4-1.49.8-2.24,1.19l-.5.25c-.64.32-1.28.65-1.93.96-.62.3-1.24.58-1.86.87,0,0-.56.26-.58.27-1.07.48-2.21.97-3.47,1.49l-.71.29c-1.13.45-2.26.89-3.41,1.31l-.18.07c-1.09.39-2.27.79-3.59,1.22l-.81.25c-1.3.41-2.46.75-3.56,1.05l-.12.03c-1.11.3-2.33.61-3.72.94l-.83.19c-2.5.57-5.07,1.05-7.61,1.44l-.86.13c-1.48.21-2.72.37-3.88.49-3.8.41-7.73.62-11.66.62Z"/>
      <g>
        <path class="cls-10" d="M216.43,108.12c0,2.43-.08,4.85-.25,7.25-.46,6.63-1.55,13.08-3.22,19.31-.09.35-.19.69-.28,1.03-.08.29-.17.59-.26.89-.49,1.71-1.02,3.39-1.61,5.07-.22.65-.45,1.29-.69,1.93-.08.23-.17.45-.25.68-.22.59-.45,1.18-.68,1.75-.68,1.69-1.39,3.36-2.15,5-.08.18-.16.36-.24.54-.05.1-.09.21-.15.31-2.27,4.8-4.9,9.4-7.85,13.75-3.01,4.43-6.35,8.61-10,12.51-.16.17-.32.35-.49.52-1.39,1.47-2.82,2.89-4.29,4.26-.43.4-.86.81-1.31,1.19-2.9,2.63-5.94,5.09-9.13,7.37-2.35,1.68-4.77,3.27-7.26,4.76-.36.22-.72.42-1.08.64-2.95,1.71-6,3.28-9.13,4.69-9.66,4.37-20.12,7.28-31.1,8.45-3.63.39-7.32.59-11.06.59-.65,0-1.3,0-1.95-.03-13.53-.24-26.4-3.12-38.15-8.12-10.55-4.49-20.19-10.7-28.58-18.26-7.36-6.66-13.73-14.34-18.91-22.86-2.1-3.43-3.99-6.99-5.68-10.67-.5-1.1-.99-2.21-1.45-3.33-.08-.22-.17-.42-.25-.64-4.53-11.14-7.15-23.25-7.47-35.94-.03-.87-.04-1.75-.04-2.63,0-5.25.39-10.41,1.16-15.43.07-.46.14-.92.23-1.38,1.59-9.67,4.54-18.87,8.64-27.43,1.3-2.72,2.72-5.37,4.25-7.94.23-.4.48-.81.72-1.2,4.61-7.54,10.16-14.43,16.5-20.51,1.75-1.69,3.55-3.31,5.42-4.86,1.68-1.4,3.41-2.75,5.19-4.04.29-.23.58-.43.88-.65,2.6-1.86,5.3-3.6,8.07-5.21,4.19-2.44,8.56-4.59,13.1-6.4,5.82-2.36,11.89-4.18,18.18-5.43,6.51-1.31,13.24-1.98,20.13-1.98,3.93,0,7.8.22,11.61.66,37.66,4.24,69.13,28.89,83.1,62.61,4.86,11.72,7.6,24.54,7.76,37.98,0,.4,0,.82,0,1.23Z"/>
        <g>
          <g>
            <g>
              <path class="cls-12" d="M133.45,47.61s.07.06.1.09c.03.02.05.04.08.06,2.47,2.01,4.99,3.98,7.56,5.88.07.05.13.09.2.14,3.68,2.71,7.47,5.25,11.38,7.58.06.04.14.08.21.12,3.13,1.86,6.33,3.57,9.61,5.09.07.03.14.07.21.1,3.74,1.74,7.58,3.22,11.51,4.41.08.02.16.05.23.07,2.71.81,5.45,1.47,8.25,1.96.02,0,.03,0,.05.01.06,0,.12.02.18.03,3.65.64,7.43.79,10.97.06.08-.02.16-.03.23-.05.39-.08.76-.17,1.14-.29,2.49-.7,4.07-3.01,4.01-5.5,0-.35-.04-.7-.12-1.05-2.09-10.09-.63-20.96-4.02-30.74-.52-1.49-1.16-2.94-1.9-4.34-.07-.14-.14-.27-.22-.4-.6-1.11-1.28-2.18-2.02-3.21-.08-.1-.15-.21-.23-.31-1.21-1.66-2.58-3.2-4.08-4.61-.07-.06-.14-.13-.22-.19-1.66-1.52-3.47-2.89-5.4-4.05-.07-.05-.14-.09-.2-.13-.85-.5-1.72-.97-2.61-1.39-.07-.03-.14-.07-.22-.1-2.11-.99-4.33-1.74-6.62-2.24-.58-.12-1.16-.22-1.75-.32h0c-.12-.02-.23-.04-.35-.05-3.7-.53-7.52-.37-11.08.71-.19.06-.37.11-.56.17l-.11.04c-6.79,2.28-12.03,7.66-16.79,13.01-3.55,3.99-7.08,8.29-9.04,13.19-.08.22-.16.43-.21.66-.52,2.03.18,4.21,1.81,5.6Z"/>
              <g>
                <path class="cls-13" d="M193.99,73.2c.08-.02.16-.03.23-.05-2.11-9.25-2.85-18.73-2.18-28.22.16-2.31.41-4.67.65-6.94.23-2.23.48-4.49.64-6.77-.07-.14-.14-.27-.22-.4-.15,2.4-.41,4.8-.66,7.14-.24,2.27-.49,4.62-.65,6.95-.67,9.51.07,19.01,2.19,28.28Z"/>
                <path class="cls-13" d="M182.79,73.1s.03,0,.05.01c.06,0,.12.02.18.03.08-4.57.54-9.15,1.38-13.68.75-4.07,1.82-8.13,2.87-12.06.94-3.6,1.93-7.31,2.67-11.02.62-3.11,1-6.02,1.17-8.77-.08-.1-.15-.21-.23-.31-.15,2.83-.54,5.83-1.18,9.03-.73,3.7-1.71,7.42-2.66,11-1.05,3.93-2.12,8-2.88,12.07-.85,4.54-1.31,9.11-1.37,13.69Z"/>
                <path class="cls-13" d="M174.31,71.07c.08.02.16.05.23.07.83-10.13,3-20.21,6.41-29.7.47-1.3.97-2.61,1.44-3.88,1.83-4.85,3.71-9.83,4.4-14.87-.07-.06-.14-.13-.22-.19-.66,5.08-2.55,10.08-4.4,14.98-.49,1.27-.98,2.6-1.44,3.88-3.42,9.49-5.59,19.58-6.43,29.71Z"/>
                <g>
                  <path class="cls-13" d="M162.59,66.57c.07.03.14.07.21.1,5.1-16.42,11.25-32.56,18.38-48.21-.07-.05-.14-.09-.2-.13-7.13,15.66-13.29,31.81-18.39,48.25Z"/>
                  <path class="cls-13" d="M152.77,61.36c.06.04.14.08.21.12,4.49-17.95,15.02-33.16,25.39-44.54-.07-.03-.14-.07-.22-.1-10.36,11.39-20.87,26.59-25.38,44.53Z"/>
                </g>
                <path class="cls-13" d="M141.19,53.64c.07.05.13.09.2.14.16-.22.33-.44.49-.67,3.2-4.46,5.97-9.32,8.63-14.03,3.48-6.13,7.08-12.46,11.68-17.94,1.96-2.33,4.54-4.91,7.58-6.86-.12-.02-.23-.04-.35-.05-2.97,1.94-5.49,4.46-7.41,6.76-4.61,5.49-8.21,11.84-11.7,17.98-2.67,4.69-5.43,9.55-8.63,14-.17.23-.33.45-.5.67Z"/>
                <path class="cls-13" d="M133.45,47.61s.07.06.1.09c.03.02.05.04.08.06,1.2-1.29,2.29-2.59,3.25-3.82,2.72-3.51,5.12-7.31,7.46-10.98,2.29-3.62,4.66-7.36,7.32-10.8,2.13-2.78,4.37-5.18,6.69-7.21-.19.06-.37.11-.56.17-2.18,1.97-4.29,4.27-6.32,6.9-2.66,3.45-5.03,7.2-7.33,10.82-2.33,3.67-4.74,7.48-7.44,10.97-.96,1.24-2.04,2.53-3.25,3.82Z"/>
              </g>
              <path class="cls-13" d="M133.54,47.69c14.49,11.84,30.96,22.17,49.29,25.42,4.18.74,8.54.87,12.52-.25,2.49-.7,4.07-3.01,4.01-5.5-1.8-5.09-5.64-9.43-9.58-12.98-6.34-5.72-13.74-10.44-21.97-12.84-9.54-2.79-19.74-2.38-29.64-1.17-2.18.26-4.56.71-6.54,1.64-.54,2.07.21,4.3,1.91,5.69Z"/>
            </g>
            <path class="cls-14" d="M168.77,51.01c-16.21,44.75-28.68,90.85-37.22,137.66-.09.51-.58.85-1.09.76s-.85-.58-.76-1.09h0c8.77-46.88,21.47-93.01,37.9-137.75.12-.32.48-.49.8-.37.32.12.49.47.37.8Z"/>
          </g>
          <g>
            <g>
              <path class="cls-12" d="M89.05,60.04s-.05.08-.07.11c-.02.03-.04.06-.06.08-1.67,2.71-3.41,5.4-5.23,8.03-.05.07-.09.13-.14.2-2.59,3.76-5.35,7.41-8.28,10.88-.05.06-.1.12-.16.18-2.35,2.78-4.81,5.44-7.42,7.95-.06.06-.11.11-.17.16-2.97,2.87-6.11,5.52-9.44,7.92-.07.05-.13.09-.2.14-2.29,1.64-4.67,3.17-7.15,4.55-.02,0-.03.02-.05.03-.06.03-.1.06-.16.08-3.24,1.8-6.77,3.18-10.35,3.64-.08,0-.16.02-.23.03-.39.05-.78.08-1.18.1-2.59.15-4.83-1.51-5.58-3.89-.11-.33-.19-.68-.23-1.03-1.32-10.22-6.25-20.01-6.24-30.37,0-1.58.13-3.16.38-4.72.02-.15.05-.3.08-.45.21-1.25.5-2.48.86-3.69l.11-.37c.6-1.96,1.39-3.86,2.35-5.69.05-.08.09-.17.14-.25,1.07-1.98,2.34-3.86,3.78-5.59.05-.07.1-.13.15-.19.64-.75,1.31-1.48,2.01-2.16.06-.06.11-.11.18-.17,1.67-1.63,3.52-3.06,5.53-4.28.51-.3,1.02-.59,1.55-.87h0c.1-.06.21-.11.31-.16,3.33-1.71,6.98-2.8,10.71-2.95.2,0,.39-.02.58-.02h.11c7.16-.07,13.87,3.31,20.12,6.81,4.66,2.61,9.4,5.52,12.85,9.51.15.18.29.36.41.55,1.16,1.75,1.2,4.04.12,5.88Z"/>
              <g>
                <path class="cls-13" d="M40.19,104c-.08,0-.16.02-.23.03-1.02-9.44-3.42-18.63-7.15-27.38-.91-2.13-1.92-4.28-2.89-6.34-.95-2.03-1.92-4.09-2.82-6.19.02-.15.05-.3.08-.45.93,2.22,1.96,4.4,2.96,6.53.97,2.07,1.97,4.21,2.89,6.35,3.74,8.77,6.15,17.99,7.17,27.45Z"/>
                <path class="cls-13" d="M50.75,100.25s-.03.02-.05.03c-.06.03-.1.06-.16.08-1.57-4.3-3.5-8.47-5.77-12.48-2.04-3.6-4.38-7.09-6.66-10.46-2.07-3.09-4.21-6.28-6.12-9.54-1.6-2.74-2.91-5.36-3.97-7.91l.11-.37c1.06,2.62,2.42,5.33,4.06,8.15,1.9,3.26,4.04,6.45,6.11,9.53,2.27,3.37,4.62,6.87,6.66,10.47,2.28,4.01,4.21,8.19,5.77,12.49Z"/>
                <path class="cls-13" d="M58.1,95.56c-.07.05-.13.09-.2.14-4.1-9.31-9.44-18.12-15.76-25.97-.86-1.07-1.77-2.15-2.63-3.2-3.32-3.99-6.72-8.07-9.01-12.61.05-.08.09-.17.14-.25,2.28,4.59,5.71,8.69,9.05,12.72.87,1.04,1.78,2.13,2.63,3.2,6.34,7.85,11.68,16.68,15.78,25.98Z"/>
                <g>
                  <path class="cls-13" d="M67.71,87.48c-.06.06-.11.11-.17.16-10.19-13.86-21.27-27.1-33.12-39.56.05-.07.1-.13.15-.19,11.85,12.47,22.95,25.72,33.14,39.59Z"/>
                  <path class="cls-13" d="M75.28,79.34c-.05.06-.1.12-.16.18-10.1-15.5-25.03-26.43-38.55-33.8.06-.06.11-.11.18-.17,13.52,7.38,28.42,18.31,38.53,33.79Z"/>
                </g>
                <path class="cls-13" d="M83.7,68.26c-.05.07-.09.13-.14.2-.23-.15-.45-.31-.68-.47-4.48-3.17-8.69-6.86-12.75-10.44-5.29-4.65-10.76-9.47-16.9-13.14-2.61-1.56-5.89-3.16-9.4-4,.1-.06.21-.11.31-.16,3.44.86,6.65,2.43,9.21,3.97,6.15,3.68,11.63,8.51,16.93,13.17,4.06,3.56,8.25,7.26,12.73,10.42.23.16.46.32.69.47Z"/>
                <path class="cls-13" d="M89.05,60.04s-.05.08-.07.11c-.02.03-.04.06-.06.08-1.56-.83-3.01-1.7-4.31-2.55-3.71-2.43-7.23-5.24-10.64-7.94-3.35-2.67-6.81-5.43-10.44-7.82-2.92-1.93-5.83-3.47-8.68-4.63.2,0,.39-.02.58-.02,2.7,1.15,5.45,2.63,8.22,4.46,3.64,2.4,7.11,5.16,10.46,7.83,3.4,2.71,6.92,5.52,10.61,7.93,1.31.86,2.75,1.72,4.31,2.55Z"/>
              </g>
              <path class="cls-13" d="M88.99,60.15c-9.82,15.92-22.01,31.07-38.29,40.13-3.71,2.07-7.79,3.61-11.92,3.85-2.59.15-4.83-1.51-5.58-3.89.04-5.4,2.25-10.75,4.81-15.4,4.13-7.48,9.58-14.35,16.57-19.32,8.1-5.75,17.88-8.69,27.63-10.79,2.14-.47,4.54-.82,6.72-.58,1.18,1.79,1.2,4.14.06,6Z"/>
            </g>
            <path class="cls-14" d="M59.32,73.19c4.1,3.91,7.7,8.36,10.73,13.16,1.56,2.37,2.93,4.86,4.29,7.35,1.3,2.52,2.55,5.07,3.68,7.67,2.31,5.18,4.3,10.48,6.19,15.81,1.89,5.35,3.5,10.79,4.82,16.31,2.64,11.03,4.21,22.32,4.66,33.66.45,11.33-.34,22.74-2.65,33.83-.03.14-.17.23-.31.2-.13-.03-.22-.15-.2-.28,1.1-11.23,1.7-22.45,1.3-33.68-.39-11.22-1.89-22.4-4.46-33.34-2.6-10.91-6.2-21.63-10.54-32-4.38-10.32-9.94-20.3-17.87-28.32-.1-.1-.1-.26,0-.37.1-.1.26-.1.36,0Z"/>
          </g>
        </g>
        <g>
          <path class="cls-14" d="M198.78,165.62c-3.01,4.43-6.35,8.61-10,12.51-.16.17-.32.35-.49.52-1.39,1.47-2.82,2.89-4.29,4.26-.43.4-.86.81-1.31,1.19-2.9,2.63-5.94,5.09-9.13,7.37-2.35,1.68-4.77,3.27-7.26,4.76-.36.22-.72.42-1.08.64-12.07,6.99-25.69,11.59-40.23,13.14-2.58-2.68-4.78-5.68-6.12-9.13l4.54-4.78c6-12.45,16.76-22.16,28.97-28.63l1.04-.54c7.18-3.67,15-6.34,23.07-6.69,7.73-.33,15.52,1.61,22.28,5.38Z"/>
          <path class="cls-14" d="M173.57,191.46c-2.35,1.68-4.77,3.27-7.26,4.76-.36.22-.72.42-1.08.64-12.07,6.99-25.69,11.59-40.23,13.14-3.63.39-7.32.59-11.06.59-14.23,0-27.79-2.9-40.1-8.15-10.55-4.49-20.19-10.7-28.58-18.26,1.59-1.69,3.21-3.37,4.84-5.03,9.45-9.54,21.06-16.99,33.76-21.36,6.97-2.39,14.26-3.84,21.63-4.19,16.57-.79,33.4,4.31,46.9,13.86,8.58,6.08,15.82,13.96,20.8,23.27.13.24.25.48.38.72Z"/>
          <path class="cls-7" d="M173.57,191.46c-2.35,1.68-4.77,3.27-7.26,4.76-.36.22-.72.42-1.08.64-12.07,6.99-25.69,11.59-40.23,13.14-3.63.39-7.32.59-11.06.59-14.23,0-27.79-2.9-40.1-8.15-10.55-4.49-20.19-10.7-28.58-18.26,1.59-1.69,3.21-3.37,4.84-5.03,9.45-9.54,21.06-16.99,33.76-21.36,6.97-2.39,14.26-3.84,21.63-4.19,16.57-.79,33.4,4.31,46.9,13.86,8.58,6.08,15.82,13.96,20.8,23.27.13.24.25.48.38.72Z"/>
        </g>
        <g>
          <path class="cls-9" d="M112,210.57c-13.53-.24-26.4-3.12-38.15-8.12-10.55-4.49-20.19-10.7-28.58-18.26-7.36-6.66-13.73-14.34-18.91-22.86-2.1-3.43-3.99-6.99-5.68-10.67,1.96-1.63,4.3-2.79,6.79-3.31,4.9-1.02,10.3.57,13.72,4.22,4.27,4.55,5.02,11.27,5.56,17.48,2.74-4.53,6.6-8.53,11.44-10.67,4.84-2.14,10.73-2.23,15.28.49,3.89,2.32,6.48,6.45,7.63,10.83,1.17,4.37,1.02,9,.39,13.49-.66,4.77-1.84,9.48-3.52,13.99,5.75-3.82,12.33-6.94,19.24-6.74,6.9.19,14.04,4.51,15.65,11.23.7,2.97.28,6.05-.87,8.9Z"/>
          <path class="cls-9" d="M216.17,115.36c-.46,6.63-1.55,13.08-3.22,19.31-.09.35-.19.69-.28,1.03-.08.29-.17.59-.26.89-.49,1.71-1.02,3.39-1.61,5.07-.22.65-.45,1.29-.69,1.93-.08.23-.17.45-.25.68-.22.59-.45,1.18-.68,1.75-.68,1.69-1.39,3.36-2.15,5-.08.18-.16.36-.24.54-.05.1-.09.21-.15.31-2.27,4.8-4.9,9.4-7.85,13.75-3.01,4.43-6.35,8.61-10,12.51-.16.17-.32.35-.49.52-1.39,1.47-2.82,2.89-4.29,4.26-.43.4-.86.81-1.31,1.19-2.9,2.63-5.94,5.09-9.13,7.37-2.35,1.68-4.77,3.27-7.26,4.76-.36.22-.72.42-1.08.64-2.95,1.71-6,3.28-9.13,4.69-1.99-4.46-1.7-10.53.83-15.15,1.49-2.73,3.79-4.98,6.48-6.51.88-.51,8.28-3.65,8.9-2.26-4.78-10.66-9.42-21.53-11.32-33.07-1.1-6.65-.96-14.28,3.78-19.05,4.98-5.01,13.47-4.87,19.73-1.59,6.25,3.27,10.81,9,15.16,14.55-.95-4.29.49-8.75,2.5-12.66,1.9-3.69,4.47-7.26,8.19-9.12,1.81-.91,3.81-1.33,5.82-1.33Z"/>
        </g>
        <g>
          <g>
            <polyline class="cls-4" points="130.79 132.51 126.47 152.83 139.91 170.75"/>
            <polyline class="cls-4" points="130.75 165.95 135.79 165.11 145.15 166.31"/>
          </g>
          <g>
            <path class="cls-6" d="M174.23,118.32c-1.39,4.52-3.34,8.74-6.04,12.24-11.52,14.88-36.48,21.84-61.45,18.72-24.96-3.12-44.15-31.69-44.15-31.69,0,0-24.26,8.72-39.58,13.65-7.13,2.29-12.33,3.77-12.26,3.16.23-1.93,3.6-5.53,3.6-5.53,0,0-9.61-1.19-8.64-3.12.39-.78,6.64-2.85,13.88-5.03,3.74-1.12,7.75-2.26,11.35-3.27,6.5-1.82,11.71-3.21,11.71-3.21,0,0,18.21-9.55,36.88-20,2.29-1.28,4.6-2.58,6.87-3.87.78-.44,1.56-.88,2.33-1.33,1.39-.8,2.84-1.64,4.31-2.5,7.7-4.49,16.43-9.73,25.14-14.52.22-.12.44-.24.66-.36.37-.21.72-.39,1.08-.59,14.61-7.94,28.98-14.39,38.16-13.7,11.11.83,15,7.37,16.73,13.96.19.7.35,1.39.49,2.09.47,2.23.74,4.4,1.02,6.27.91,6.06,2.4,23.92-2.11,38.64Z"/>
            <path class="cls-8" d="M174.23,118.32c-1.76.04-3.46-.88-4.71-2.14-1.33-1.34-2.75-3.56-3.63-5.24-2.95,1.31-6.56.58-9.11-1.39-2.55-1.98-4.09-5.07-4.67-8.23-.58-3.18-.28-6.45.33-9.62.75-3.84,1.98-7.63,4.15-10.89,2.55-3.84,3.3-7.42,7.57-9.18,2.99-1.23,6.39-1.86,9.45-.83.42.14.84.32,1.23.53.19.7.35,1.39.49,2.09.47,2.23.74,4.4,1.02,6.27.91,6.06,2.4,23.92-2.11,38.64Z"/>
            <path class="cls-13" d="M171.15,75.27c-.44,5.71-3.62,11.03-8.06,14.64s-10.06,5.6-15.74,6.26c-3.48.39-7.09.31-10.34-.99-3.24-1.3-6.46-3.85-7.32-7.24-1.73,1.41-4.32,1.5-6.33.53-2.01-.99-3.46-2.9-4.23-5-.78-2.1-.93-4.37-.86-6.61.06-1.75.25-3.49.59-5.21.37-.21.72-.39,1.08-.59,5.22,2.54,11.32,4.87,16.89,6.15,8.59,1.97,17.55.91,26.3-.16,2.87-.36,5.37-.62,8.02-1.78Z"/>
            <path class="cls-14" d="M175.32,73.4c-1.53,1.79-3.58,3.09-5.74,4.08-4.71,2.13-9.93,2.81-15.06,3.42-7.18.86-14.52,1.62-21.59.07-5.72-1.26-11.32-4.31-14.73-8.96,15.2-8.37,30.35-15.37,39.9-14.65,12.29.91,15.74,8.83,17.22,16.05Z"/>
            <path class="cls-5" d="M175.32,73.4c-1.53,1.79-3.58,3.09-5.74,4.08-4.71,2.13-9.93,2.81-15.06,3.42-7.18.86-14.52,1.62-21.59.07-5.72-1.26-11.32-4.31-14.73-8.96,15.2-8.37,30.35-15.37,39.9-14.65,12.29.91,15.74,8.83,17.22,16.05Z"/>
            <polygon class="cls-12" points="167.91 78.16 175.07 73.04 184.74 76.56 176.58 81.36 167.91 78.16"/>
            <g>
              <path class="cls-13" d="M123.83,111.57c-.75,1.78-3.02,2.23-4.94,2.41-5.68.52-11.43.74-17.05-.18-5.63-.93-11.16-3.08-15.42-6.87-3.68-3.26-6.32-7.84-6.87-12.69,2.29-1.28,4.6-2.58,6.87-3.87.78-.44,1.56-.88,2.33-1.33,1.39-.8,2.84-1.64,4.31-2.5,1.17,1.16,1.8,2.86,1.33,4.42,1.13-1.88,3.71-2.42,5.87-2.74,2.29-.34,4.94-.12,6.47,1.64,1.19,1.38,1.37,3.41.89,5.17-.47,1.76-1.51,3.3-2.58,4.78,2.01-1.01,4.54-2.11,6.8-2.22,2.25-.09,4.71,1,5.5,3.11.78,2.11-.31,4.46-1.65,6.26,1.88-.43,3.84-.62,5.65.05,1.81.67,3.23,2.77,2.49,4.56Z"/>
              <g>
                <path class="cls-14" d="M116.96,114.08c-5.09.47-11.13.95-17.24,1.39h0c-.36.03-.72.06-1.08.08,0,0-.02,0-.02,0-4.42.33-8.85.62-12.94.86-.32.02-.63.04-.95.06-5.53.33-10.4.58-13.73.7-.23,0-.46,0-.68.02-.23,0-.46,0-.68.02-2.11.06-4.53.09-7.09.13-.25,0-.52,0-.78.02-3.33.05-6.86.08-10.28.11-.21,0-.41,0-.62,0-2.53.02-4.98.04-7.22.05-.25,0-.5,0-.74,0-3.06,0-5.7.03-7.52.03-.25,0-.5,0-.72,0h-2l-1.7-.11c.09-.04.2-.08.29-.11.33-.13.65-.26.97-.39,0,0,.02,0,.02,0,5.78-2.27,10.16-3.95,10.16-3.95,0,0,22.2-10.26,42.61-21.83.33-.02.67-.02,1.01,0,.86.05,1.74.21,2.57.48.08.02.18.06.26.09.9.31,1.74.77,2.47,1.38.07.05.13.1.2.17.19.16.38.34.55.53.69.74,1.17,1.62,1.5,2.56.03.08.05.15.07.23.34,1.08.45,2.24.37,3.39,0,.08-.02.17-.03.26-.09.96-.34,1.91-.71,2.79,3.84-1.91,8.53-2.57,12.36-.67.13.07.26.13.39.21.09.05.19.1.28.16.49.29.94.64,1.33,1.04.07.06.12.11.18.18.23.24.42.49.6.76.66,1.03.94,2.35.58,3.52.39-.05.78-.04,1.17,0,.18.02.36.05.53.08,1.61.31,3.17,1.26,4.36,2.53.07.07.12.13.17.2.81.89,1.43,1.93,1.76,3.01Z"/>
                <g class="cls-11">
                  <path class="cls-13" d="M88.84,91.74c-17.66,11.71-37.01,20.36-57.56,25.71l-.03-.11-.03-.12c.33-.08.67-.18,1-.26,0,0,.02,0,.02,0,20.1-5.33,39.03-13.85,56.34-25.29.08.02.18.06.26.09Z"/>
                  <g>
                    <path class="cls-13" d="M91.5,93.29c-18,9.57-36.83,17.71-56.13,24.26-.25,0-.5,0-.72,0,19.49-6.58,38.49-14.78,56.65-24.44.07.05.13.1.2.17Z"/>
                    <path class="cls-13" d="M93.62,96.6c-16.16,7.95-32.95,14.98-49.98,20.91-.25,0-.5,0-.74,0,17.27-5.99,34.28-13.09,50.66-21.15.03.08.05.15.07.23Z"/>
                    <path class="cls-13" d="M93.99,100c0,.08-.02.17-.03.26-14.21,5.52-28.46,11.29-42.48,17.2-.21,0-.41,0-.62,0,14.23-6.01,28.7-11.87,43.13-17.47Z"/>
                    <path class="cls-13" d="M106.27,102.75l-43.73,14.58c-.25,0-.52,0-.78.02l44.23-14.76c.09.05.19.1.28.16Z"/>
                    <path class="cls-13" d="M107.79,103.97c-12.38,3.96-24.7,8.38-36.8,13.19-.23,0-.46,0-.68.02,12.27-4.9,24.76-9.38,37.3-13.39.07.06.12.11.18.18Z"/>
                    <path class="cls-13" d="M110.67,108.34l-25,8.06c-.32.02-.63.04-.95.06l25.43-8.21c.18.02.36.05.53.08Z"/>
                    <path class="cls-13" d="M115.2,111.07c-5.16,1.43-10.33,2.9-15.48,4.4h0c-.36.03-.72.06-1.08.08,5.46-1.61,10.94-3.16,16.4-4.67.07.07.12.13.17.2Z"/>
                  </g>
                </g>
              </g>
            </g>
            <path class="cls-13" d="M23.01,131.24c-7.13,2.29-12.33,3.77-12.26,3.16.23-1.93,3.6-5.53,3.6-5.53,0,0-9.61-1.19-8.64-3.12.39-.78,6.64-2.85,13.88-5.03-.12.65-.1,1.33.08,1.97.47,1.66,1.99,2.99,3.71,3.21-.84,1.63-.97,3.6-.38,5.33Z"/>
            <g>
              <path class="cls-14" d="M161.47,74.08c0,1.81-1.47,3.28-3.28,3.28s-3.28-1.47-3.28-3.28,1.47-3.28,3.28-3.28,3.28,1.47,3.28,3.28Z"/>
              <circle class="cls-10" cx="153.19" cy="87" r="8.52" transform="translate(31.48 214.36) rotate(-75.9)"/>
            </g>
          </g>
          <g>
            <polyline class="cls-4" points="104.51 135.75 100.19 156.07 113.63 173.99"/>
            <polyline class="cls-4" points="104.47 169.19 109.51 168.35 118.87 169.55"/>
          </g>
        </g>
        <g>
          <g>
            <line class="cls-3" x1="87.31" y1="13.36" x2="87.31" y2="34.64"/>
            <line class="cls-3" x1="97.95" y1="24" x2="76.67" y2="24"/>
            <line class="cls-3" x1="82.24" y1="18.4" x2="92.88" y2="30.45"/>
            <line class="cls-3" x1="81.53" y1="29.75" x2="93.58" y2="19.11"/>
          </g>
          <g>
            <line class="cls-1" x1="122.51" y1="44.24" x2="122.51" y2="61.04"/>
            <line class="cls-1" x1="130.91" y1="52.64" x2="114.11" y2="52.64"/>
            <line class="cls-1" x1="118.5" y1="48.22" x2="126.9" y2="57.73"/>
            <line class="cls-1" x1="117.95" y1="57.18" x2="127.46" y2="48.78"/>
          </g>
          <g>
            <line class="cls-1" x1="147.15" y1="135.43" x2="147.15" y2="152.23"/>
            <line class="cls-1" x1="155.55" y1="143.83" x2="138.75" y2="143.83"/>
            <line class="cls-1" x1="143.14" y1="139.42" x2="151.54" y2="148.93"/>
            <line class="cls-1" x1="142.58" y1="148.37" x2="152.1" y2="139.97"/>
          </g>
          <g>
            <line class="cls-2" x1="196.5" y1="93.84" x2="196.5" y2="110.8"/>
            <line class="cls-2" x1="204.98" y1="102.32" x2="188.02" y2="102.32"/>
            <line class="cls-2" x1="192.46" y1="97.85" x2="200.94" y2="107.46"/>
            <line class="cls-2" x1="191.9" y1="106.9" x2="201.51" y2="98.42"/>
          </g>
          <g>
            <line class="cls-2" x1="51.55" y1="130.95" x2="51.55" y2="147.91"/>
            <line class="cls-2" x1="60.03" y1="139.43" x2="43.07" y2="139.43"/>
            <line class="cls-2" x1="47.51" y1="134.97" x2="55.99" y2="144.58"/>
            <line class="cls-2" x1="46.94" y1="144.02" x2="56.55" y2="135.54"/>
          </g>
        </g>
      </g>
    </g>
  </g>
</svg>