<?xml version="1.0" encoding="UTF-8"?>
<svg id="_Слой_2" data-name="Слой 2" xmlns="http://www.w3.org/2000/svg" viewBox="0 0 216.24 216.23">
  <defs>
    <style>
      .cls-1 {
        fill: #fff;
      }

      .cls-2 {
        fill: #b4e2e0;
      }

      .cls-3 {
        fill: #76b38a;
      }

      .cls-4 {
        fill: #fdc0cc;
      }

      .cls-5 {
        fill: #fe9e5b;
      }

      .cls-6 {
        fill: #fdebe8;
      }

      .cls-7 {
        fill: none;
        stroke: #172c45;
        stroke-linecap: round;
        stroke-linejoin: round;
        stroke-width: .47px;
      }

      .cls-8 {
        fill: #ffc368;
      }

      .cls-9 {
        fill: #172c45;
      }
    </style>
  </defs>
  <g id="OBJECTS">
    <g>
      <path class="cls-1" d="M108.12,216.23c-.7,0-1.4-.01-2.11-.03-5.26-.1-10.6-.59-15.82-1.46l-.58-.1c-.73-.13-1.44-.25-2.15-.39-.03,0-.77-.16-.77-.16-.63-.13-1.28-.26-1.93-.4l-.82-.19c-.63-.14-1.24-.29-1.85-.44l-.88-.22c-.59-.15-1.17-.3-1.76-.46l-.92-.26c-.57-.16-1.12-.32-1.67-.49l-.97-.3c-.54-.17-1.06-.34-1.59-.51l-.99-.33c-.53-.18-1.04-.36-1.55-.54,0,0-.77-.28-1.02-.37-.53-.19-1.06-.4-1.59-.6l-.89-.34c-.83-.33-1.65-.67-2.46-1.01-11.06-4.71-21.2-11.19-30.14-19.27-.74-.67-1.45-1.33-2.17-2.03l-.23-.22c-.72-.69-1.4-1.37-2.07-2.06,0,0-.55-.55-.7-.71-.53-.55-1.05-1.1-1.56-1.66l-.08-.09c-.31-.33-.61-.66-.91-.99-.46-.51-.92-1.03-1.36-1.54-.37-.43-.75-.86-1.11-1.3-.41-.49-.82-.98-1.22-1.47-.4-.49-.79-.98-1.18-1.48-.37-.47-.73-.93-1.08-1.4-.42-.55-.83-1.11-1.23-1.67l-.23-.31c-.24-.33-.48-.66-.72-1-.46-.65-.9-1.31-1.35-1.97l-.25-.37c-.17-.24-.33-.48-.49-.73-.69-1.06-1.36-2.11-1.99-3.14-.08-.13-.43-.71-.43-.71-2.03-3.37-3.9-6.92-5.56-10.54-.22-.49-.42-.93-.61-1.36-.01-.03-.03-.07-.04-.1-.16-.35-.31-.68-.46-1.04,0,0-.46-1.1-.47-1.13l-.25-.62c-3.06-7.53-5.27-15.46-6.55-23.51-.76-4.7-1.2-9.54-1.32-14.35-.03-.89-.04-1.83-.04-2.77,0-2.77.1-5.53.31-8.19.19-2.67.5-5.4.91-8.1.07-.47.15-.98.24-1.5,1.65-10,4.71-19.72,9.11-28.9.78-1.64,1.61-3.26,2.49-4.87-.79-.98-1.39-2-1.82-3.09-1.16-2.94-.92-6.2.66-8.71,1.72-2.74,4.83-4.38,8.32-4.38.27,0,.54.01.81.03.86.07,1.66.22,2.42.44,3.01-3.78,6.29-7.38,9.77-10.71,1.83-1.77,3.76-3.5,5.73-5.13,1.8-1.5,3.62-2.92,5.41-4.22.28-.22.57-.42.86-.63l.11-.08c2.75-1.97,5.62-3.82,8.54-5.51,4.45-2.59,9.11-4.87,13.84-6.76,6.14-2.49,12.6-4.42,19.17-5.73,6.92-1.39,14.07-2.09,21.23-2.09,4.15,0,8.28.23,12.26.7,39,4.39,72.6,29.7,87.66,66.06.24.57.47,1.15.69,1.72,4.82,12.17,7.35,25.09,7.51,38.35,0,.38,0,.84,0,1.3,0,2.56-.09,5.13-.27,7.65-.46,6.57-1.52,13.13-3.17,19.47-.05.22-.11.45-.17.67l-.42,1.53c-.07.26-.15.52-.23.78-.5,1.75-1.07,3.53-1.69,5.31-.2.62-.46,1.3-.71,1.99l-.28.74c-.18.49-.38,1.01-.59,1.53l-.12.31c-.36.88-.7,1.71-1.05,2.55-.41.95-.8,1.82-1.2,2.69-.09.21-.19.41-.28.62-.07.15-.14.29-.21.43-2.35,4.98-5.13,9.83-8.24,14.41-3.16,4.65-6.7,9.09-10.55,13.2l-.13.14c-.14.15-.28.3-.43.45-1.45,1.53-2.96,3.02-4.48,4.45-.46.43-.93.87-1.41,1.29-3.05,2.77-6.28,5.38-9.6,7.75-2.5,1.79-5.07,3.48-7.65,5.01-.17.1-1.11.66-1.14.68-3.14,1.82-6.39,3.49-9.64,4.95-.91.41-1.84.81-2.77,1.2l-.66.27c-.72.3-1.45.59-2.18.87l-.77.29c-.71.27-1.42.53-2.13.78l-.76.26c-.74.26-1.48.5-2.23.74l-.68.22c-.82.26-1.64.5-2.46.74l-.47.14c-2.06.58-4.11,1.1-6.09,1.53-1.08.23-2.15.45-3.22.65-2.8.52-5.62.94-8.4,1.24-1.26.14-2.63.26-4.17.36-.34.02-.68.04-1.02.06l-.92.05c-.33.02-.66.04-1,.05h-.4c-.19.02-.37.03-.54.03-.38.02-.76.03-1.15.03-.88.02-1.67.03-2.47.03Z"/>
      <g>
        <path class="cls-2" d="M211.08,108.12c0,2.43-.08,4.85-.25,7.25-.44,6.35-1.47,12.55-3.03,18.54-.06.25-.13.52-.2.77-.09.35-.19.69-.28,1.03-.08.29-.17.59-.26.89-.49,1.71-1.02,3.39-1.61,5.07-.22.65-.45,1.29-.69,1.93l-.25.68c-.22.59-.45,1.18-.68,1.75-.33.82-.67,1.63-1.01,2.43-.38.86-.75,1.72-1.15,2.57-.08.18-.16.36-.24.54-.05.1-.09.21-.15.31-2.27,4.8-4.9,9.4-7.85,13.75-3.01,4.43-6.35,8.61-10,12.51-.16.17-.32.35-.49.52-1.39,1.47-2.82,2.89-4.29,4.26-.43.4-.86.81-1.31,1.19-2.9,2.63-5.94,5.09-9.13,7.37-2.35,1.68-4.77,3.27-7.26,4.76-.36.22-.72.42-1.08.64-2.95,1.71-6,3.28-9.13,4.69-6.37,2.89-13.09,5.13-20.09,6.66-1.01.22-2.02.42-3.04.61-2.63.49-5.29.88-7.98,1.18-2.22.24-4.46.41-6.72.5h-.02c-.28,0-.57.03-.86.03-.4.02-.81.03-1.22.04-.75.02-1.49.03-2.25.03-.65,0-1.3,0-1.95-.03-1.88-.04-3.74-.12-5.59-.26-.45-.02-.9-.06-1.35-.1-3.68-.31-7.3-.82-10.86-1.51-7.07-1.38-13.88-3.49-20.35-6.24-10.55-4.49-20.19-10.7-28.58-18.26-.69-.62-1.35-1.24-2.02-1.89-.14-.13-.29-.26-.43-.41-6.33-6.1-11.86-13-16.46-20.56-.14-.23-.27-.45-.41-.69-1.94-3.21-3.69-6.55-5.26-9.98-.19-.41-.38-.83-.55-1.24h0c-.17-.39-.33-.74-.49-1.12-.13-.32-.27-.65-.4-.97-.08-.22-.17-.42-.25-.64-2.88-7.08-4.99-14.55-6.22-22.32-.71-4.45-1.14-8.99-1.25-13.61-.03-.87-.04-1.75-.04-2.63,0-2.6.09-5.19.29-7.75.19-2.58.48-5.15.86-7.68.07-.46.14-.92.23-1.38,1.59-9.67,4.54-18.87,8.64-27.43,1.3-2.72,2.72-5.37,4.25-7.94.08-.15.18-.3.27-.45.15-.25.3-.51.45-.75,1.44-2.35,2.97-4.64,4.58-6.86,3.57-4.9,7.56-9.47,11.92-13.65,1.75-1.69,3.55-3.31,5.42-4.86,1.68-1.4,3.41-2.75,5.19-4.04.29-.23.58-.43.88-.65,2.6-1.86,5.3-3.6,8.07-5.21,4.19-2.44,8.56-4.59,13.1-6.4,5.82-2.36,11.89-4.18,18.18-5.43,6.51-1.31,13.24-1.98,20.13-1.98,3.93,0,7.8.22,11.61.66,37.66,4.24,69.13,28.89,83.1,62.61.22.53.43,1.06.64,1.6,4.46,11.28,6.97,23.56,7.13,36.38,0,.4,0,.82,0,1.23Z"/>
        <g>
          <g>
            <path class="cls-6" d="M153.87,29.36h-82.82c1.89-3.29,5.31-5.69,9.08-6.25,4.45-.66,9.19,1.3,11.89,4.89,3.27-7.86,9.89-14.26,17.85-17.28,3.37-1.28,7.15-1.96,10.57-.82,6.2,2.09,9.01,9.18,10.44,15.58,3.19-2.74,7.09-4.97,11.3-5.04,4.21-.08,8.65,2.55,9.6,6.65l2.09,2.27Z"/>
            <path class="cls-6" d="M205.07,115.44h-82.82c1.89-3.29,5.31-5.69,9.08-6.25,4.45-.66,9.19,1.3,11.89,4.89,3.27-7.86,9.89-14.26,17.85-17.28,3.37-1.28,7.15-1.96,10.57-.82,6.2,2.09,9.01,9.18,10.44,15.58,3.19-2.74,7.09-4.97,11.3-5.04,4.21-.08,8.65,2.55,9.6,6.65l2.09,2.27Z"/>
          </g>
          <g>
            <g>
              <path class="cls-7" d="M157.39,58.56c13.27,29.86,19.67,62.26,25.28,94.46"/>
              <g>
                <path class="cls-9" d="M174.47,112.06c0-1.94-1.41-3.64-3.09-4.6-1.68-.97-3.61-1.36-5.48-1.88-3.16-.88-6.22-2.15-9.07-3.77-1.99-1.13-3.93-2.49-5.17-4.41-1.85-2.88-1.84-6.55-1.46-9.95,1.96,1.43,4.52,1.33,6.83,2.07,9.24,2.97,16.8,12.86,17.43,22.55Z"/>
                <g>
                  <path class="cls-6" d="M153.62,55.92c-2.53-3.97-5.99-7.33-10.03-9.74-1.29-.77-2.69-1.46-4.18-1.57-1.5-.11-3.13.45-3.93,1.72-.67,1.06-.66,2.46-.19,3.63.46,1.17,1.32,2.14,2.27,2.97,3.31,2.9,7.67,4.24,11.95,5.28-4.97,2.14-10.72,4.77-13.9,9.14-.83,1.14-1.51,2.45-1.54,3.86s.74,2.9,2.07,3.36c1.45.5,3-.31,4.28-1.14,4.14-2.69,7.89-5.96,11.11-9.69.43,2.86.87,5.72,1.49,8.55.38,1.74.85,3.51,1.9,4.95,1.01,1.38,2.86,2.41,4.42,1.7,1.54-.7,1.98-2.65,2.05-4.34.15-3.89-.75-7.82-2.56-11.27,2.48,2.95,5.88,5.12,9.6,6.11,1.89.5,3.94.7,5.8.07,1.37-.46,2.67-1.53,2.82-2.97.1-.99-.36-1.95-.94-2.75-2.63-3.62-7.46-4.76-11.9-5.31,4.75-1.15,9.13-3.78,12.38-7.42.79-.89,1.55-2.18.91-3.18-.63-.99-2.08-.88-3.22-.6-5.08,1.24-9.91,3.48-14.14,6.56,2.46-3.16,3.84-7.16,3.84-11.16,0-1.58-.31-3.34-1.59-4.26-1.35-.96-3.32-.56-4.58.52s-1.96,2.66-2.52,4.21c-1.37,3.78-1.36,8.77-1.65,12.79Z"/>
                  <path class="cls-8" d="M160.07,58.66c0,1.85-1.5,3.35-3.35,3.35s-3.35-1.5-3.35-3.35,1.5-3.35,3.35-3.35,3.35,1.5,3.35,3.35Z"/>
                </g>
              </g>
            </g>
            <path class="cls-9" d="M211.08,108.12c0,2.43-.08,4.85-.25,7.25-.44,6.35-1.47,12.55-3.03,18.54-.06.25-.13.52-.2.77-.09.35-.19.69-.28,1.03-.08.29-.17.59-.26.89-.49,1.71-1.02,3.39-1.61,5.07-.22.65-.45,1.29-.69,1.93l-.25.68c-.22.59-.45,1.18-.68,1.75-.33.82-.67,1.63-1.01,2.43-2.16.24-4.35.27-6.53.06-5.01-.51-12.59-2.78-16.52-6.23-5.88-5.17-5.4-14.24,1.3-18.51,3.71-2.37,8.6-2.62,12.69-1-12.47-6.73-21.35-19.74-23.07-33.81-.46-3.75-.41-7.68,1.07-11.16,1.48-3.48,4.63-6.42,8.39-6.81,2.58-.26,5.14.66,7.47,1.8,4.11,2.01,7.85,4.76,11.01,8.07.23-4,2.28-7.75,5.3-10.36,4.46,11.28,6.97,23.56,7.13,36.38,0,.4,0,.82,0,1.23Z"/>
          </g>
          <g>
            <path class="cls-5" d="M207.8,133.9c-.06.25-.13.52-.2.77-.09.35-.19.69-.28,1.03-.08.29-.17.59-.26.89-.49,1.71-1.02,3.39-1.61,5.07-.22.65-.45,1.29-.69,1.93l-.25.68c-.22.59-.45,1.18-.68,1.75-.68,1.69-1.39,3.36-2.15,5-.08.18-.16.36-.24.54-.05.1-.09.21-.15.31-2.27,4.8-4.9,9.4-7.85,13.75-3.01,4.43-6.35,8.61-10,12.51-.16.17-.32.35-.49.52-1.39,1.47-2.82,2.89-4.29,4.26-.43.4-.86.81-1.31,1.19-2.9,2.63-5.94,5.09-9.13,7.37-2.35,1.68-4.77,3.27-7.26,4.76-.36.22-.72.42-1.08.64-2.95,1.71-6,3.28-9.13,4.69-7.29,3.3-15.04,5.76-23.12,7.28-2.63.49-5.29.88-7.98,1.18-2.9.32-5.85.51-8.82.56-1.98-14.93-7.2-53.47-9.77-66.01-.28-1.4-.61-2.88-.96-4.4-1.65-7.1-3.94-15.22-5.93-21.95-2.19-7.42-4.03-13.13-4.29-13.88,0-.06-.02-.08-.02-.08,0,0-.22.19-.72.48-1.26.68-4.33,1.95-10.48,2.4-8.64.64-8.96.96-16.64,2.56-4.59.96-11.57-.94-16.72-3.99-.22-.11-.42-.24-.62-.38-.47-.29-.92-.59-1.35-.9-2.47-1.8-4.25-3.86-4.66-5.92-.1-.52-.14-1.03-.1-1.55,0-.11.02-.23.03-.35.02-.12.03-.23.05-.35.02-.12.05-.23.07-.36.05-.23.11-.46.18-.69.04-.11.08-.23.11-.34.16-.46.37-.9.6-1.34.06-.1.11-.22.18-.32.06-.11.13-.23.2-.34.06-.1.12-.21.19-.3.07-.1.13-.21.21-.31.08-.1.14-.21.22-.31,2.49-3.45,6.4-5.93,6.4-5.93l25.6-20.69,3.73-3.02.75-.61h-.04c-.69-.06-10.34-1.02-14.04-11.2-3.84-10.57-3.52-15.69,0-16.97.4-.15.81-.22,1.25-.22.1,0,.2,0,.3,0,3.34.21,7.66,3.99,13.17,5.65,6.4,1.92,13.44,2.56,14.72,6.08,1.28,3.52,1.28,6.72,1.28,6.72,0,0,8.64-2.89,16.32.32,0,0-.12-.14-.33-.4,0-.02-.02-.03-.03-.04-1.58-2-7.6-10.44-2.84-17.16,3.96-5.58,6.21-6.26,8.38-4.37.82.71,1.62,1.79,2.49,3.09,3.21,4.8,11.2,9.93,12.48,16.32,1.28,6.4-7.68,18.24-7.68,18.24,0,0,17.6,59.84,31.68,66.88,5.04,2.52,14.48,2.95,24.51,2.46,5.62-.27,11.43-.84,16.76-1.49,4.61-.55,8.86-1.18,12.33-1.72Z"/>
            <path class="cls-9" d="M108.37,89.28c-.9,5.91-3.33,11.51-5.97,16.87-2.11,4.31-4.35,8.71-7.97,11.86-.08.07-.16.13-.24.2-2.19-7.42-4.03-13.13-4.29-13.88,7.08-3.71,13.4-8.86,18.47-15.05Z"/>
            <g>
              <path class="cls-4" d="M83.15,56.2c-.02.29-.05.58-.18.85-.17.34-.5.57-.81.79-1.59,1.11-3.32,2.71-5.12,3.84-.69-.06-10.34-1.02-14.04-11.2-3.84-10.57-3.52-15.69,0-16.97.4-.15.81-.22,1.25-.22,1.73,1.11,3.07,2.77,4.72,4.02,2.75,2.09,6.28,2.98,8.99,5.13,3.99,3.17,5.53,8.66,5.2,13.74Z"/>
              <g>
                <path class="cls-4" d="M121.97,51.03c-.23,1.17-.75,2.27-1.34,3.31-.75,1.33-1.9,3.32-3.37,3.97-1.49.67-2.24-.55-3.1-1.63-1.4-1.75-2.89-3.42-4.46-5,0-.02-.02-.03-.03-.04-1.58-2-7.6-10.44-2.84-17.16,3.96-5.58,6.21-6.26,8.38-4.37.29.65.53,1.35.76,2.02,1.79,5.1,4.9,9.77,5.88,15.09.24,1.26.35,2.56.1,3.82Z"/>
                <path class="cls-5" d="M113.7,54.14c.21-.24.46-.45.76-.53.53-.13,1.08.23,1.36.71s.33,1.04.38,1.58c.11-1.39.52-2.84,1.55-3.78,1.03-.94,2.81-1.15,3.79-.15.51.52.74,1.26.88,1.98.49,2.48.21,5.1-.78,7.42-.41.96-.96,1.9-1.8,2.53-.84.63-2.01.89-2.96.44-.45-.21-.82-.56-1.17-.93-2.21-2.35-4.63-6.28-2.01-9.26Z"/>
              </g>
            </g>
            <g>
              <path class="cls-6" d="M72.62,66.87c-2.26,5.15-8.87,6.98-11.87,11.74-.68,1.09-1.16,2.31-1.95,3.33-1.25,1.61-3.14,2.55-4.93,3.5-3.03,1.61-5.96,3.37-8.79,5.29-1.61,1.09-3.13,2.39-5.09,2.12.19-.32.39-.62.61-.92,2.49-3.45,6.4-5.93,6.4-5.93l25.6-20.69c.07.07.12.14.16.23.2.41.05.9-.13,1.33Z"/>
              <g>
                <path class="cls-9" d="M94.52,72.48c0,1.9-1.54,3.44-3.44,3.44s-3.44-1.54-3.44-3.44,1.54-3.44,3.44-3.44,3.44,1.54,3.44,3.44Z"/>
                <path class="cls-9" d="M52.46,96.59c-.55,1.22-1.87,1.76-3.12,2.37-.07.05-.14.08-.21.11-.34.17-.67.36-.98.56-.87.6-1.57,1.43-2.26,2.26-.05.07-.09.12-.15.18-.73.89-1.46,1.76-2.41,2.33-2.47-1.8-4.25-3.86-4.66-5.92-.46-2.31.5-4.59,1.92-6.55,1.84-.56,4.01-.67,6.17-.57,1.53.07,3.12.31,4.35,1.21,1.24.9,1.98,2.63,1.34,4.02Z"/>
                <path class="cls-6" d="M49.34,98.96c-.07.05-.14.08-.21.11-.07-.14-.15-.3-.25-.46-.35-.55-.72-.96-1.15-1.23-.5-.33-1.08-.46-1.58-.38-.99.17-1.75,1.22-1.7,2.34.05.91.58,1.86,1.45,2.55-.05.07-.09.12-.15.18-.93-.73-1.49-1.71-1.53-2.72-.06-1.23.79-2.4,1.9-2.58.56-.09,1.19.06,1.74.41.45.29.86.72,1.22,1.31.1.16.19.32.26.47Z"/>
                <path class="cls-9" d="M65.19,96.98c-5.72,4.38-12.67,7.42-19.87,8.7-.22-.11-.42-.24-.62-.38,7.32-1.22,14.41-4.26,20.21-8.7.1-.08.25-.07.33.05.08.09.06.24-.05.33Z"/>
              </g>
            </g>
            <g>
              <g>
                <path class="cls-6" d="M154.67,142.99c-.51.5-.97,1.08-1.13,1.77-.16.69.08,1.52.7,1.86.86.47,1.99-.11,2.88.29.64.29.95,1.01,1.42,1.54,1.07,1.24,2.91,1.47,4.55,1.38,2.41-.12,4.79-.72,6.97-1.76,1.08-.51,2.13-1.15,2.84-2.11.7-.96.99-2.3.45-3.36-.49-.96-1.54-1.51-2.58-1.81-2.6-.74-5.64-.4-8.34-.69-2.83-.29-5.74.88-7.75,2.87Z"/>
                <path class="cls-6" d="M195.77,137.51c-.17.99-.88,1.8-1.6,2.5-.94.93-1.96,1.82-3.21,2.26-1.49.53-3.14.31-4.72.1-2.87-.39-5.73-.76-8.6-1.14-.29-.05-.59-.08-.85-.24-.27-.17-.39-.4-.39-.68-.03-.66.52-1.49.85-1.91.4-.52.92-.94,1.47-1.3,5.62-.27,11.43-.84,16.76-1.49.27.58.41,1.24.3,1.89Z"/>
                <path class="cls-6" d="M175.75,147.07c-.37.31-.72.67-.89,1.13-.22.62-.04,1.34.35,1.87.62.84,1.68,1.26,2.71,1.4s2.09.07,3.13.16c1.9.16,3.81.85,5.68.47,1.04-.21,2-.76,2.8-1.46.9-.79,1.67-1.99,1.3-3.14-.18-.57-.61-1.03-1.09-1.38-1.76-1.29-3.87-1.21-5.93-1.34-1.71-.11-3.24-.06-4.9.5-1.16.39-2.24,1-3.17,1.8Z"/>
              </g>
              <path class="cls-6" d="M114.31,127.73c.48.79,1.18,1.59,2.11,1.66,1.31.1,2.25-1.27,2.61-2.54.78-2.73.53-8.84-3.72-7.62-3.9,1.11-2.51,5.99-.99,8.49Z"/>
              <path class="cls-6" d="M127.64,208.83c-2.63.49-5.29.88-7.98,1.18-2.9.32-5.85.51-8.82.56-1.98-14.93-7.2-53.47-9.77-66.01-.28-1.4-.61-2.88-.96-4.4.84-1.07,1.93-1.92,3.21-2.3,2.31-.69,4.89.27,6.66,1.9,1.78,1.64,2.9,3.86,3.81,6.11,5.75,14.18,4.62,30.36,9.85,44.74,1.41,3.88,3.28,7.63,3.99,11.69.38,2.14.38,4.38,0,6.52Z"/>
            </g>
          </g>
          <path class="cls-3" d="M113.9,208.94c-.29.54-.61,1.05-.96,1.56-.7.03-1.39.06-2.1.07-.75.02-1.49.03-2.25.03-.65,0-1.3,0-1.95-.03-13.53-.24-26.4-3.12-38.15-8.12-10.55-4.49-20.19-10.7-28.58-18.26-7.36-6.66-13.73-14.34-18.91-22.86-.14-.23-.27-.45-.41-.69,1.59-1.57,3.28-2.96,4.78-3.98,4.28-2.94,10.08-4.25,14.73-1.94,6.28,3.12,8.07,11.07,9.13,18.01,1.81-7.03,5.25-14.02,11.28-18.07,6.03-4.05,15.02-4.2,19.97,1.11,3.36,3.61,4.27,8.84,4.48,13.76.28,6.38-.36,12.8-1.88,19,3.46-3.62,7.64-6.71,12.45-8.11,4.81-1.41,10.32-.94,14.39,1.97,4.33,3.1,6.53,8.54,6.81,13.86.23,4.38-.72,8.84-2.84,12.68Z"/>
          <g>
            <g>
              <path class="cls-9" d="M57.53,125.65c-.5,1.06-1,2.13-1.49,3.21-1.15,2.48-2.3,4.98-3.43,7.5-3.54,7.83-6.92,15.85-9.59,24.04-2.52,7.73-4.22,14.98-5.11,21.9-.14-.13-.29-.26-.43-.41.92-6.85,2.6-14.02,5.09-21.63,2.75-8.43,6.24-16.68,9.89-24.72,1.03-2.29,2.09-4.56,3.14-6.81.5-1.09,1.01-2.18,1.51-3.26.06-.12.2-.17.31-.11.12.05.17.19.11.31Z"/>
              <g>
                <path class="cls-6" d="M53.79,122.87c-2.53-3.97-5.99-7.33-10.03-9.74-1.29-.77-2.69-1.46-4.18-1.57-1.5-.11-3.13.45-3.93,1.72-.67,1.06-.66,2.46-.19,3.63.46,1.17,1.32,2.14,2.27,2.97,3.31,2.9,7.67,4.24,11.95,5.28-4.97,2.14-10.72,4.77-13.9,9.14-.83,1.14-1.51,2.45-1.54,3.86-.03,1.41.74,2.9,2.07,3.36,1.45.5,3-.31,4.28-1.14,4.14-2.69,7.89-5.96,11.11-9.69.43,2.86.87,5.72,1.49,8.55.38,1.74.85,3.51,1.9,4.95,1.01,1.38,2.86,2.41,4.42,1.7,1.54-.7,1.98-2.65,2.05-4.34.15-3.89-.75-7.82-2.56-11.27,2.48,2.95,5.88,5.12,9.6,6.11,1.89.5,3.94.7,5.8.07,1.37-.46,2.67-1.53,2.82-2.97.1-.99-.36-1.95-.94-2.75-2.63-3.62-7.46-4.76-11.9-5.31,4.75-1.15,9.13-3.78,12.38-7.42.79-.89,1.55-2.18.91-3.18-.63-.99-2.08-.88-3.22-.6-5.08,1.24-9.91,3.48-14.14,6.56,2.46-3.16,3.84-7.16,3.84-11.16,0-1.58-.31-3.34-1.59-4.26-1.35-.96-3.32-.56-4.58.52-1.26,1.07-1.96,2.66-2.52,4.21-1.37,3.78-1.36,8.77-1.65,12.79Z"/>
                <path class="cls-8" d="M60.23,125.62c0,1.85-1.5,3.35-3.35,3.35s-3.35-1.5-3.35-3.35,1.5-3.35,3.35-3.35,3.35,1.5,3.35,3.35Z"/>
              </g>
            </g>
            <g>
              <path class="cls-9" d="M35.88,60.89c-.16.23-.33.45-.49.68-.97,1.38-1.89,2.79-2.74,4.23-7.12,11.83-10.55,25.46-12.97,37.52-3.34,16.63-4.97,31.92-4.9,46.08-.17-.38-.33-.73-.49-1.11,0-4.62.19-9.34.56-14.2.03-.51.08-1.02.12-1.54v-.02c.76-9.3,2.18-19.04,4.24-29.3,2.3-11.49,5.54-24.39,11.97-35.85,1.21-2.17,2.55-4.29,4.01-6.33.09-.15.21-.29.31-.44.08-.1.22-.12.33-.05.1.08.12.22.05.33Z"/>
              <path class="cls-9" d="M15.15,134.76c-.09-.23-.2-.45-.3-.67-1.75-3.68-4.88-6.51-7.44-9.73-.71-4.45-1.14-8.99-1.25-13.61-.03-.87-.04-1.75-.04-2.63,0-2.6.09-5.19.29-7.75,3.22,3.87,4.51,8.65,5.48,13.7,1.14,5.96,2.48,12.36,3.08,18.49.07.74.13,1.48.18,2.21Z"/>
              <path class="cls-9" d="M18.89,108.49c1.49-4.37,3-8.77,5.19-12.84s5.14-7.82,9.02-10.35c1.89-1.23,3.97-2.14,6.12-2.8-2.16,2.79-2.22,5.97-2.81,9.44-.59,3.47-1.5,7.17-4.17,9.48-3.41,2.95-10.4,3.65-13.35,7.06Z"/>
              <g>
                <path class="cls-6" d="M35.31,57.36c-2.53-3.97-5.99-7.33-10.03-9.74-1.29-.77-2.69-1.46-4.18-1.57-1.5-.11-3.13.45-3.93,1.72-.67,1.06-.66,2.46-.19,3.63.46,1.17,1.32,2.14,2.27,2.97,3.31,2.9,7.67,4.24,11.95,5.28-4.97,2.14-10.72,4.77-13.9,9.14-.83,1.14-1.51,2.45-1.54,3.86s.74,2.9,2.07,3.36c1.45.5,3-.31,4.28-1.14,4.14-2.69,7.89-5.96,11.11-9.69.43,2.86.87,5.72,1.49,8.55.38,1.74.85,3.51,1.9,4.95,1.01,1.38,2.86,2.41,4.42,1.7,1.54-.7,1.98-2.65,2.05-4.34.15-3.89-.75-7.82-2.56-11.27,2.48,2.95,5.88,5.12,9.6,6.11,1.89.5,3.94.7,5.8.07,1.37-.46,2.67-1.53,2.82-2.97.1-.99-.36-1.95-.94-2.75-2.63-3.62-7.46-4.76-11.9-5.31,4.75-1.15,9.13-3.78,12.38-7.42.79-.89,1.55-2.18.91-3.18-.63-.99-2.08-.88-3.22-.6-5.08,1.24-9.91,3.48-14.14,6.56,2.46-3.16,3.84-7.16,3.84-11.16,0-1.58-.31-3.34-1.59-4.26-1.35-.96-3.32-.56-4.58.52-1.26,1.07-1.96,2.66-2.52,4.21-1.37,3.78-1.36,8.77-1.65,12.79Z"/>
                <path class="cls-8" d="M41.75,60.1c0,1.85-1.5,3.35-3.35,3.35s-3.35-1.5-3.35-3.35,1.5-3.35,3.35-3.35,3.35,1.5,3.35,3.35Z"/>
              </g>
            </g>
          </g>
          <g>
            <path class="cls-9" d="M80.53,163.23c9.81,13.86,13.29,30.99,19.18,46.97-3.68-.31-7.3-.82-10.86-1.51-3.24-5.69-6.15-11.55-8.32-17.71-2.94-8.33-4.5-17.25-3.56-26.03.15-1.37.94-3.17,2.27-2.83.56.13.95.64,1.29,1.11Z"/>
            <path class="cls-9" d="M112.19,184.19c.06,8.77-.65,17.59-.12,26.34-.4.02-.81.03-1.22.04-.75.02-1.49.03-2.25.03-.65,0-1.3,0-1.95-.03-1.88-.04-3.74-.12-5.59-.26-.98-7.34-1.79-14.72-2.43-22.1-.67-7.64-1.16-15.33-.4-22.96.38-3.88,1.16-7.91,3.52-11.01.52-.68,1.21-1.34,2.07-1.33,1.02.02,1.74,1.01,2.24,1.91,4.91,8.85,6.07,19.27,6.14,29.38Z"/>
            <path class="cls-9" d="M137.94,181.6c0,4.48-1.15,8.89-2.47,13.19-1.4,4.54-3,9.02-4.79,13.42-1.01.22-2.02.42-3.04.61-2.63.49-5.29.88-7.98,1.18-2.22.24-4.46.41-6.72.5h-.02c1.42-9.59,3.95-19.01,7.52-28.01,1.77-4.45,3.84-8.87,7.08-12.4,1.52-1.64,3.87-3.16,5.87-2.12,1.01.52,1.62,1.58,2.1,2.6,1.61,3.44,2.45,7.24,2.46,11.04Z"/>
          </g>
        </g>
      </g>
    </g>
  </g>
</svg>