<?xml version="1.0" encoding="UTF-8"?>
<svg id="_Слой_2" data-name="Слой 2" xmlns="http://www.w3.org/2000/svg" viewBox="0 0 220.14 206.28">
  <defs>
    <style>
      .cls-1 {
        opacity: .47;
      }

      .cls-1, .cls-2, .cls-3 {
        fill: #172c45;
      }

      .cls-4 {
        fill: #fff;
      }

      .cls-5 {
        fill: #b4e2e0;
      }

      .cls-6 {
        fill: #76b38a;
      }

      .cls-7 {
        stroke: #172c45;
        stroke-width: .51px;
      }

      .cls-7, .cls-8, .cls-9 {
        fill: none;
        stroke-linecap: round;
        stroke-linejoin: round;
      }

      .cls-8 {
        stroke-width: .81px;
      }

      .cls-8, .cls-9 {
        stroke: #fdebe8;
      }

      .cls-10 {
        fill: #fdc0cc;
      }

      .cls-9 {
        stroke-width: 1.3px;
      }

      .cls-11 {
        fill: #fdebe8;
      }

      .cls-2 {
        opacity: .37;
      }

      .cls-12 {
        fill: #ffc368;
      }
    </style>
  </defs>
  <g id="OBJECTS">
    <g>
      <path class="cls-4" d="M178.65,183.05c-.05.04-.1.08-.16.13-.68.56-1.42,1.16-2.17,1.74-.71.55-1.43,1.1-2.16,1.63-.18.14-.37.28-.55.41-18.08,12.99-40.45,19.65-62.67,19.32-24.78-.36-48.69-9.67-67-26.39-17.61-16.09-29.79-38.31-33.2-61.97-.14-.94-.26-1.89-.37-2.84-.19-1.68-.35-3.41-1.12-4.91-1.11-2.21-3.32-3.61-5.02-5.4C-.15,100.1-.85,92.87.86,86.69c1.71-6.17,5.46-11.55,9.14-16.79,3.13-4.45,6.26-8.91,9.39-13.36,6.14-8.73,12.3-17.51,19.72-25.18C58.05,11.75,85.06.18,112.32,0c27.26-.18,54.42,11.02,73.62,30.37,2.59,2.61,5.07,5.38,8.19,7.32,3.25,2.02,7.02,3.02,10.45,4.72,11.39,5.64,17.87,19.69,14.78,32.02-1.02,4.06-2.94,7.89-3.57,12.02-.54,3.54-.1,7.14.14,10.71,1.66,24.26-5.8,48.73-20.37,68.16-2.26,3.02-4.69,5.92-7.28,8.67-.08.09-.16.17-.24.26"/>
      <g>
        <path class="cls-10" d="M210.3,103.34c0,1.51-.03,3.02-.11,4.52-1.79,39.57-28.79,75.21-66.37,87.75-27.31,9.12-58.74,5.36-83.01-10.2l-1.2-.78c-10.93-7.18-20.32-16.52-27.58-27.4-7.06-10.6-12.1-22.64-14.56-35.61-.55-2.92-.98-5.88-1.26-8.89-.24-2.42-.38-4.86-.43-7.33,0-.2-.01-.4-.01-.6-.02-.49-.02-.98-.02-1.46,0-16.1,3.91-31.28,10.82-44.65,5.88-11.36,13.93-21.41,23.6-29.59,4.73-4.03,9.84-7.6,15.3-10.64.56-.32,1.12-.63,1.69-.93,3.97-2.14,8.11-3.99,12.38-5.56,2.25-.82,4.53-1.56,6.84-2.23,2.86-.8,5.78-1.49,8.74-2.04.09-.02.18-.04.28-.05,5.71-1.05,11.6-1.6,17.62-1.6.6,0,1.2.01,1.8.02.27,0,.53.01.79.02,11.12.28,21.77,2.44,31.65,6.16,6.51,2.44,12.68,5.56,18.44,9.3.21.13.42.26.63.42.05.02.11.06.16.09,1.48.98,2.94,1.99,4.36,3.06.97.7,1.92,1.43,2.86,2.19.91.73,1.8,1.47,2.68,2.23.29.24.58.49.86.75.21.18.42.36.63.56.23.19.45.39.67.59,1.21,1.11,2.4,2.24,3.56,3.42.43.44.86.88,1.29,1.33.59.62,1.17,1.24,1.75,1.87.06.06.12.13.16.19.42.46.82.91,1.2,1.36.07.07.13.13.17.19.7.81,1.38,1.62,2.04,2.44.06.06.13.14.19.23.07.09.15.18.22.28.16.2.31.4.46.6,0,.01.02.02.03.02.05.06.09.11.13.17.44.56.88,1.13,1.3,1.7.06.06.11.13.15.2,1.28,1.72,2.49,3.48,3.65,5.28.67,1.03,1.32,2.09,1.96,3.16,5.61,9.48,9.65,20,11.78,31.2,1.04,5.49,1.62,11.16,1.69,16.95.02.43.02.87.02,1.31Z"/>
        <g>
          <path class="cls-5" d="M176.39,177.12s-.07.07-.11.1h-.01c-.5.44-1.01.87-1.52,1.28-.68.56-1.37,1.12-2.07,1.66-.69.53-1.4,1.07-2.11,1.59-.14.11-.29.22-.43.32-.65.48-1.3.94-1.96,1.39-.65.45-1.3.89-1.96,1.32-.83.54-1.67,1.08-2.52,1.59-.62.39-1.24.76-1.87,1.12-.24.14-.47.28-.71.41-.12.08-.25.15-.37.21-.41.24-.83.46-1.25.69-.04.02-.08.06-.12.07-.78.42-1.56.82-2.35,1.24-.05.02-.1.06-.15.07-.77.38-1.54.76-2.32,1.13s-1.57.74-2.36,1.09c-.78.34-1.57.66-2.36,1-.79.32-1.59.63-2.39.94-.91.34-1.83.67-2.76,1-1.22.41-2.45.82-3.69,1.19h-.02s-.05.02-.07.02c-.16.05-.32.1-.48.13-.12.05-.23.08-.35.11-.07.02-.13.05-.2.06-.38.11-.76.21-1.14.32-.45.13-.91.25-1.37.36-.14.04-.29.08-.44.12-.13.03-.26.07-.4.09-.29.07-.58.14-.88.22-.66.16-1.32.3-1.99.45-.21.05-.42.09-.64.14-.53.11-1.06.21-1.6.32-.42.08-.85.16-1.28.23-.42.08-.84.15-1.27.21-.15.03-.3.06-.45.07-.29.05-.59.11-.9.15,0,0-.02,0-.04,0h0c-.55.09-1.11.16-1.67.23-.75.11-1.51.2-2.27.29-.79.07-1.59.16-2.39.21-.85.08-1.7.14-2.56.18-.74.05-1.49.09-2.24.11h-.34c-.86.04-1.73.06-2.6.06h-.38c-.7,0-1.4-.01-2.09-.03-.14,0-.29,0-.43-.01-.17,0-.34,0-.51-.01-1.02-.03-2.04-.07-3.06-.14-.58-.03-1.16-.07-1.74-.12-.07-.01-.14-.01-.2-.02-.24-.02-.48-.04-.72-.06-.79-.07-1.58-.15-2.36-.24h-.06c-.75-.09-1.5-.19-2.25-.29-.61-.08-1.22-.17-1.82-.27-.35-.05-.71-.11-1.06-.18-.71-.11-1.42-.24-2.12-.38-.55-.1-1.09-.21-1.64-.33-.78-.16-1.55-.33-2.32-.51-.69-.17-1.38-.33-2.06-.51-.24-.06-.48-.12-.71-.19-.54-.14-1.07-.29-1.6-.44-.71-.2-1.41-.41-2.1-.62-.74-.23-1.46-.47-2.19-.71-.64-.21-1.26-.43-1.89-.66-.19-.07-.38-.14-.56-.2-.59-.22-1.18-.44-1.76-.67-.61-.23-1.22-.48-1.82-.73-.77-.32-1.54-.64-2.29-.98-.68-.3-1.35-.6-2.02-.92-.04-.01-.07-.03-.11-.05-.64-.3-1.26-.61-1.89-.92-.66-.33-1.32-.67-1.97-1.01-2.35-1.24-4.63-2.57-6.86-4l.25-2.95.25-3.03.17-2.12.46-5.52.31-3.79.92-11.09,1.56-18.74.16-1.95,1.56-18.77,13.94-.83,5.57-.33,55.31-3.25,6.02-.35,18.79-1.1,3.62,22.93.06.4.27,1.72,2.02,12.84,1.61,10.23,1.07,6.84.32,1.99.17,1.11.48,3.08.16,1.01.45,2.87.08.51Z"/>
          <path class="cls-1" d="M176.39,177.12s-.07.07-.11.1h-.01c-.5.44-1.01.87-1.52,1.28-.68.56-1.37,1.12-2.07,1.66-.69.53-1.4,1.07-2.11,1.59-.14.11-.29.22-.43.32-.65.48-1.3.94-1.96,1.39-.65.45-1.3.89-1.96,1.32-.83.54-1.67,1.08-2.52,1.59-.62.39-1.24.76-1.87,1.12-.24.14-.47.28-.71.41-.12.08-.25.15-.37.21-.41.24-.83.46-1.25.69-.04.02-.08.06-.12.07-.78.42-1.56.82-2.35,1.24-.05.02-.1.06-.15.07-.77.38-1.54.76-2.32,1.13s-1.57.74-2.36,1.09c-.78.34-1.57.66-2.36,1-.79.32-1.59.63-2.39.94-.91.34-1.83.67-2.76,1-1.22.41-2.45.82-3.69,1.19h-.02s-.05.02-.07.02c-.16.05-.32.1-.48.13-.12.05-.23.08-.35.11-.07.02-.13.05-.2.06-.38.11-.76.21-1.14.32-.45.13-.91.25-1.37.36-.14.04-.29.08-.44.12-.13.03-.26.07-.4.09-.29.07-.58.14-.88.22-.66.16-1.32.3-1.99.45-.21.05-.42.09-.64.14-.53.11-1.06.21-1.6.32-.42.08-.85.16-1.28.23-.42.08-.84.15-1.27.21-.15.03-.3.06-.45.07-.29.05-.59.11-.9.15,0,0-.02,0-.04,0h0c-.55.09-1.11.16-1.67.23-.75.11-1.51.2-2.27.29-.79.07-1.59.16-2.39.21-.85.08-1.7.14-2.56.18-.74.05-1.49.09-2.24.11h-.34c-.86.04-1.73.06-2.6.06h-.38c-.7,0-1.4-.01-2.09-.03-.14,0-.29,0-.43-.01-.17,0-.34,0-.51-.01-1.02-.03-2.04-.07-3.06-.14-.58-.03-1.16-.07-1.74-.12-.07-.01-.14-.01-.2-.02-.24-.02-.48-.04-.72-.06-.79-.07-1.58-.15-2.36-.24h-.06c-.75-.09-1.5-.19-2.25-.29-.61-.08-1.22-.17-1.82-.27-.35-.05-.71-.11-1.06-.18-.71-.11-1.42-.24-2.12-.38-.55-.1-1.09-.21-1.64-.33-.78-.16-1.55-.33-2.32-.51-.69-.17-1.38-.33-2.06-.51-.24-.06-.48-.12-.71-.19-.54-.14-1.07-.29-1.6-.44-.71-.2-1.41-.41-2.1-.62-.74-.23-1.46-.47-2.19-.71-.64-.21-1.26-.43-1.89-.66-.19-.07-.38-.14-.56-.2-.59-.22-1.18-.44-1.76-.67-.61-.23-1.22-.48-1.82-.73-.77-.32-1.54-.64-2.29-.98-.68-.3-1.35-.6-2.02-.92-.04-.01-.07-.03-.11-.05-.64-.3-1.26-.61-1.89-.92-.66-.33-1.32-.67-1.97-1.01-2.35-1.24-4.63-2.57-6.86-4l.25-2.95.25-3.03.17-2.12.46-5.52.31-3.79.92-11.09,1.56-18.74.16-1.95,1.56-18.77,13.94-.83,5.57-.33,55.31-3.25,6.02-.35,18.79-1.1,3.62,22.93.06.4.27,1.72,2.02,12.84,1.61,10.23,1.07,6.84.32,1.99.17,1.11.48,3.08.16,1.01.45,2.87.08.51Z"/>
        </g>
        <g>
          <g>
            <path class="cls-11" d="M179.42,174.39c-.55.52-1.1,1.03-1.66,1.54-.15.13-.3.27-.45.39-.3.27-.61.54-.92.8-.04.04-.07.07-.11.1-.81.05-1.62.08-2.44.09-5.18.07-10.39-.71-14.82-3.23-.91-.52-1.79-1.11-2.63-1.78-1.95-1.57-3.75-3.37-5.42-5.3-2.15-2.47-4.1-5.14-5.93-7.76-.42-.6-6.2-8.53-5.76-9,0,0,.35-.38.92-1,.72-.77,1.78-1.91,2.9-3.11,0,0,.03-.02.04-.03.24-.27.49-.54.74-.81,2.32-2.5,4.64-5,4.65-5-.07.07-.01.31.14.68h0c.02.06.04.11.07.16.82,1.83,3.56,6.16,5.45,9.08.94,1.47,1.68,2.58,1.84,2.85,1.61,2.62,3.2,5.37,5.02,7.93,1.89,2.69,4.03,5.19,6.68,7.13.04.04.09.07.13.1,2.43,1.75,5.1,3.22,7.84,4.51.65.31,1.31.61,1.97.9.58.26,1.17.51,1.75.76Z"/>
            <path class="cls-11" d="M96.43,150.24c.44.47-5.34,8.4-5.76,9-3.26,4.66-6.89,9.49-11.35,13.06-7.04,5.64-16.83,5.58-25.36,4.34-.67-.1-.77-1.01-.15-1.26,4.83-1.92,9.8-4.11,14.03-7.17,5.25-3.79,8.51-9.75,11.83-15.16.57-.93,8.06-12.18,7.51-12.77,0,0,9.25,9.95,9.25,9.95Z"/>
          </g>
          <g>
            <path class="cls-5" d="M209.25,84.1c-.24.34-.46.66-.66.98-4.17,6.56-.17,8.95-2.83,19.26-2.79,10.82-17.1,10.13-24.78,14.31-7.68,4.19-6.28,11.87-12.91,17.45-1.44,1.21-3.12,1.79-4.86,1.94-6.24.53-13.29-4.38-13.29-4.38,0,0,0,.1.03.27h0c.07.55.2,1.78.27,3.06v.02c.03.52.05,1.05.05,1.54,0,.36-.32.91-.88,1.58,0,.01,0,.01,0,.02-.2.25-.44.53-.71.82h0c-1.41,1.52-3.51,3.39-5.53,5.13,0,.01-.03.02-.04.03-2.41,2.06-4.67,3.91-5.39,4.63-1.75,1.75-1.05,8.03-1.75,18.85-.7,10.81-3.49,21.63-3.49,21.63l-2.33,7.86c-.42.08-.84.15-1.27.21-.15.03-.3.06-.45.07-.29.05-.59.11-.9.15,0,0-.02,0-.04,0h0c-.55.09-1.11.16-1.67.23-.75.11-1.51.2-2.27.29-.79.07-1.59.16-2.39.21-.85.08-1.7.14-2.56.18-.74.05-1.49.09-2.24.11h-.34c-.86.04-1.73.06-2.6.06h-.38c-.84,0-1.68-.01-2.52-.04-.18,0-.36,0-.54-.01-.71-.02-1.42-.05-2.13-.09-.3-.01-.6-.03-.9-.05-.65-.04-1.3-.08-1.94-.14-.24-.02-.48-.04-.72-.06-.12-.01-.24-.02-.35-.03-.67-.06-1.34-.13-2.01-.21h-.02l1.33-8.89.29-1.94c1.74-12.22-2.45-23.03-5.24-30.01-.78-1.96-2.12-3.8-3.7-5.49-3.16-3.38-7.35-6.13-10.23-7.9-.08-.04-.15-.09-.22-.13-.74-.45-1.39-.83-1.9-1.14-.14-.08-.26-.17-.38-.27,0,0,0,0,0,0-2.8-2.37.75-8.81.75-8.81-3.06,2.38-6.87,3.62-10.74,3.78-4.97.19-10.04-1.44-13.71-4.83-2.64-2.43-5.02-5.83-8.6-6.04-1.83-.11-3.58.68-5.38,1.05-3.36.71-7.02-.12-9.75-2.2-6.11-4.67-6.77-14.2-12.9-18.84-1.7-1.28-3.71-2.1-5.72-2.91-2.65-1.07-5.29-2.12-7.16-4.23-4.16-4.7-2.45-12.05.14-17.76,4.22-9.31,10.26-17.86,17.81-24.72,2.59-2.35,5.35-4.5,8.29-6.42,11.49-7.52,25.55-11.28,39.18-9.65,4.01.48,8.32,1.57,11.96-.18,27.87-13.39,62.53.13,62.53.13,14.71-4.34,28.59-3.51,40.6.18,5.37,1.64,10.36,3.86,14.89,6.45,14.65,8.38,10.46,27.57,5.23,34.9Z"/>
            <path class="cls-2" d="M209.25,84.1c-.24.34-.46.66-.66.98-4.17,6.56-.17,8.95-2.83,19.26-2.79,10.82-17.1,10.13-24.78,14.31-7.68,4.19-6.28,11.87-12.91,17.45-6.63,5.59-18.15-2.44-18.15-2.44,0,0,0,.1.03.27h0c.07.55.2,1.79.27,3.08.03.52.05,1.05.05,1.54,0,.36-.32.91-.88,1.58,0,.01,0,.01,0,.02-.2.25-.44.53-.71.82-1.4,1.51-3.51,3.39-5.53,5.13-2.42,2.07-4.71,3.94-5.43,4.66-1.75,1.75-1.05,8.03-1.75,18.85-.7,10.81-3.49,21.63-3.49,21.63l-2.33,7.86c-.42.08-.84.15-1.27.21-.15.03-.3.06-.45.07-.29.05-.59.11-.9.15,0,0-.02,0-.04,0h0c-.55.09-1.11.16-1.67.23-.75.11-1.51.2-2.27.29-.79.07-1.59.16-2.39.21-.85.08-1.7.14-2.56.18-.74.05-1.49.09-2.24.11h-.34c-.86.04-1.73.06-2.6.06h-.38c-3.76,0-7.46-.21-11.11-.63l1.18-7.84.42-2.99c1.74-12.22-2.45-23.03-5.24-30.01-.78-1.96-2.12-3.8-3.7-5.49-3.16-3.38-7.35-6.13-10.23-7.9-.08-.04-.15-.09-.22-.13-.74-.45-1.39-.83-1.9-1.14-.14-.08-.26-.17-.38-.27,0,0,0,0,0,0-2.8-2.37.75-8.81.75-8.81-7.01,5.44-17.93,4.97-24.45-1.05-2.64-2.43-5.02-5.83-8.6-6.04-1.83-.11-3.58.68-5.38,1.05-3.36.71-7.02-.12-9.75-2.2-6.11-4.67-6.77-14.2-12.9-18.84-1.7-1.28-3.71-2.1-5.72-2.91-2.65-1.07-5.29-2.12-7.16-4.23-4.16-4.7-2.45-12.05.14-17.76,4.22-9.31,10.26-17.86,17.81-24.72,2.59-2.35,5.35-4.5,8.29-6.42,11.49-7.52,25.55-11.28,39.18-9.65,4.01.48,8.32,1.57,11.96-.18,27.87-13.39,62.53.13,62.53.13,14.71-4.34,28.59-3.51,40.6.18,5.37,1.64,10.36,3.86,14.89,6.45,14.65,8.38,10.46,27.57,5.23,34.9Z"/>
          </g>
          <g>
            <g>
              <path class="cls-3" d="M143.99,94.05c0,2.46-1.99,4.45-4.45,4.45s-4.45-1.99-4.45-4.45,1.99-4.45,4.45-4.45,4.45,1.99,4.45,4.45Z"/>
              <path class="cls-3" d="M93.73,94.05c0,2.46-1.99,4.45-4.45,4.45s-4.45-1.99-4.45-4.45,1.99-4.45,4.45-4.45,4.45,1.99,4.45,4.45Z"/>
            </g>
            <g>
              <g>
                <path class="cls-7" d="M76.46,73.29s-.52,19.19,2.44,27.57c2.97,8.38,6.85,14.27,6.85,14.27"/>
                <path class="cls-7" d="M84.35,145.63c-1.73.06-3.08-1.68-3.27-3.4-.19-1.72.46-3.41,1.01-5.05,2.93-8.64,3.66-17.84,4.36-26.94"/>
              </g>
              <path class="cls-7" d="M153.67,72.33s.65,14.13-3.27,23.43c-3.93,9.29-9.03,17.14-9.03,17.14"/>
              <path class="cls-7" d="M139.67,107.4s.92,4.84,3.53,10.34c2.62,5.5,7.33,15.18,7.07,18.71-.26,3.53-1.57,4.71-1.57,4.71"/>
            </g>
            <g>
              <path class="cls-7" d="M104.48,112.06c6.2-3.65,14.13-4.19,20.78-1.43"/>
              <path class="cls-7" d="M104.92,119.33c3.12-1.47,6.49-2.46,9.94-2.63,3.44-.16,6.96.52,9.97,2.2"/>
              <path class="cls-7" d="M103.15,127.28c7.49-2.69,15.86-2.85,23.45-.43"/>
            </g>
          </g>
        </g>
        <path class="cls-5" d="M86.38,9.74c-2.31.67-4.59,1.41-6.84,2.23-4.27,1.57-8.41,3.42-12.38,5.56.57,1.06,1.17,2.09,1.8,3.1,8.78-4.2,17.5-8.51,26.16-12.93-2.96.55-5.88,1.24-8.74,2.04ZM113.02,6.05c-6.02,0-11.91.55-17.62,1.6-8.01,5.59-15.89,11.2-23.57,17.14.92,1.24,1.88,2.44,2.88,3.61,1.09,1.27,2.22,2.5,3.4,3.7,3.26,3.33,6.83,6.38,10.57,9.15.22.18.44.34.66.5,1.15.86,2.31,1.68,3.5,2.49.96-1.8,1.93-3.6,2.92-5.39,6.06-11.09,12.41-22.03,19.06-32.78-.6-.01-1.2-.02-1.8-.02ZM182.02,56.54c3.07-1.19,6.06-2.55,8.97-4.11-.03-.05-.07-.1-.1-.15-.44-.84-2.39-4.99-4.88-10.41-.82-1.78-1.7-3.7-2.61-5.68-.43-.45-.86-.89-1.29-1.33-1.16-1.18-2.35-2.31-3.56-3.42-.22-.2-.44-.4-.67-.59-.21-.2-.42-.38-.63-.56-.28-.26-.57-.51-.86-.75-.88-.76-1.77-1.5-2.68-2.23-.94-.76-1.89-1.49-2.86-2.19-1.42-1.07-2.88-2.08-4.36-3.06-.05-.03-.11-.07-.16-.09-.21-.16-.42-.29-.63-.42-5.76-3.74-11.93-6.86-18.44-9.3-9.88-3.72-20.53-5.88-31.65-6.16-3.86,10.5-7.97,20.9-12.28,31.21-1.49,3.58-3.01,7.14-4.55,10.7,3.61,2.14,7.37,4.08,11.21,5.79,1.09-5.78,2.32-11.54,3.68-17.26,2.36-9.98,5.14-19.86,8.3-29.61-.6,10-1.15,19.89-1.59,29.8-.3,6.91-.55,13.83-.72,20.8,6.03,2.01,12.25,3.46,18.54,4.26,1.62-6.99,3.37-13.96,5.25-20.89,2.2-8.14,4.58-16.24,7.14-24.27-.08,8.66-.14,17.04-.08,25.4.04,6.81.14,13.6.38,20.51,9.09-.11,18.19-1.6,26.82-4.44-.64-1.87-1.16-3.72-1.53-4.76-1.5-4.08-2.54-9.16-4.16-13.6-.62-1.75-1.34-3.39-2.2-4.84.97,1.62,1.92,3.24,2.86,4.87,3.23,5.54,6.34,11.14,9.34,16.78Z"/>
        <path class="cls-6" d="M59.61,184.63c-10.93-7.18-20.32-16.52-27.58-27.4-7.06-10.6-12.1-22.64-14.56-35.61-.55-2.92-.98-5.88-1.26-8.89,2.88-1.83,6.73-2.65,8.89-.2.94,1.07,1.29,2.52,1.54,3.93.99,5.66.77,11.52-.64,17.09,2.61-7.42,8.13-13.78,15.11-17.41,3.92-2.04,8.87-3.17,12.64-.87,2.79,1.71,4.32,4.99,4.61,8.25.3,3.25-.48,6.5-1.42,9.63-2.18,7.23-5.26,14.18-9.16,20.64,2.18-3.65,7.74-4.11,11.28-1.74,3.54,2.36,5.3,6.68,5.94,10.88,1.13,7.57-.85,15.54-5.39,21.7Z"/>
        <g>
          <path class="cls-12" d="M177.31,176.32c-.3.27-.61.54-.92.8-.04.04-.07.07-.11.1h-.01c-.5.44-1.01.87-1.52,1.28-.68.56-1.37,1.12-2.07,1.66-.69.53-1.4,1.07-2.11,1.59-.14.11-.29.22-.43.32-.65.48-1.3.94-1.96,1.39-.65.45-1.3.89-1.96,1.32-.83.54-1.67,1.08-2.52,1.59-.62.39-1.24.76-1.87,1.12-9.09,2.96-18.4,5.29-28.04,5.67-.63.03-1.26.04-1.9.04-1.05-.01-2.12-.07-3.16-.23-1.56-.24-1.84-2.38-.37-2.84,0,0,.02,0,.03,0,1.56-.48,3.12-.96,4.68-1.42,13.51-4.05,27.2-7.52,40.77-11.39.82-.23,1.65-.46,2.47-.7.33-.1.67-.19,1-.29Z"/>
          <path class="cls-12" d="M184.38,168.96c.12,0,.26.01.43,0-.25.27-.49.54-.74.8-.06.06-.11.12-.17.18-.55.6-1.11,1.18-1.68,1.74-.51.53-1.03,1.04-1.56,1.54-.07.07-.15.14-.22.21-4.26.33-8.89.57-12.2.62-13.09.19-26.45.04-39.18-3.83-1.6-.49-3.22-1.05-4.72-1.83-1.39-.73-.96-2.85.58-2.81,0,0,.03,0,.04,0,18.77.59,37.52,2.48,56.28,3.24,1.05.05,2.09.09,3.14.13Z"/>
          <path class="cls-12" d="M135.82,141.6c17.35,7.72,34.18,16.67,51.48,24.53-.81.96-1.64,1.9-2.49,2.83-.25.27-.49.54-.74.8-.93-.3-1.88-.61-2.83-.93-3.13-1.04-6.2-2.13-8.53-3.05-12.21-4.77-24.52-9.95-34.84-18.34-1.31-1.05-2.59-2.19-3.68-3.48-1.01-1.21.18-3.01,1.59-2.38.02,0,.03.02.04.02Z"/>
          <path class="cls-12" d="M154.24,117.33c12.47,14.59,23.94,30.05,36.33,44.72-.88,1.16-1.78,2.3-2.71,3.42-3.62-3.32-7.93-7.51-10.7-10.46-8.97-9.55-17.86-19.51-23.58-31.52-.73-1.52-1.4-3.1-1.82-4.73-.41-1.53,1.45-2.63,2.46-1.46l.02.03Z"/>
          <path class="cls-12" d="M194.44,156.57c-1.16,1.77-2.37,3.5-3.64,5.18-1.37-3.47-2.7-7.05-3.59-9.75-4.13-12.45-8.03-25.22-8.17-38.52-.02-1.68.03-3.4.33-5.05.28-1.56,2.43-1.79,2.84-.29.01,0,.01.02.02.03,4.51,16,8.04,32.3,12.21,48.4Z"/>
          <path class="cls-12" d="M204.96,105.4v.05c-.68,12.47-1.92,24.93-3.03,37.39-1.83,4.12-3.93,8.08-6.3,11.87-.07-2.26-.1-4.4-.09-6.17.09-13.11.54-26.46,4.69-39.1.52-1.59,1.12-3.2,1.94-4.68.77-1.38,2.88-.89,2.79.64Z"/>
        </g>
        <g>
          <g>
            <line class="cls-9" x1="69.79" y1="21.49" x2="69.79" y2="42.7"/>
            <line class="cls-9" x1="80.4" y1="32.1" x2="59.19" y2="32.1"/>
            <line class="cls-9" x1="64.74" y1="26.52" x2="75.34" y2="38.53"/>
            <line class="cls-9" x1="64.03" y1="37.83" x2="76.05" y2="27.22"/>
          </g>
          <g>
            <line class="cls-9" x1="177.71" y1="63.7" x2="177.71" y2="84.92"/>
            <line class="cls-9" x1="188.31" y1="74.31" x2="167.1" y2="74.31"/>
            <line class="cls-9" x1="172.65" y1="68.73" x2="183.26" y2="80.75"/>
            <line class="cls-9" x1="171.95" y1="80.04" x2="183.96" y2="69.44"/>
          </g>
          <g>
            <line class="cls-9" x1="52.6" y1="141.83" x2="52.6" y2="163.04"/>
            <line class="cls-9" x1="63.21" y1="152.44" x2="42" y2="152.44"/>
            <line class="cls-9" x1="47.55" y1="146.86" x2="58.15" y2="158.87"/>
            <line class="cls-9" x1="46.84" y1="158.17" x2="58.86" y2="147.56"/>
          </g>
          <g>
            <line class="cls-8" x1="34.9" y1="76.01" x2="34.9" y2="89.29"/>
            <line class="cls-8" x1="41.54" y1="82.65" x2="28.26" y2="82.65"/>
            <line class="cls-8" x1="31.74" y1="79.16" x2="38.37" y2="86.68"/>
            <line class="cls-8" x1="31.29" y1="86.24" x2="38.81" y2="79.6"/>
          </g>
          <g>
            <line class="cls-8" x1="182.47" y1="128.61" x2="182.47" y2="141.88"/>
            <line class="cls-8" x1="189.11" y1="135.25" x2="175.84" y2="135.25"/>
            <line class="cls-8" x1="179.31" y1="131.75" x2="185.95" y2="139.27"/>
            <line class="cls-8" x1="178.87" y1="138.83" x2="186.39" y2="132.2"/>
          </g>
        </g>
      </g>
    </g>
  </g>
</svg>