<?xml version="1.0" encoding="UTF-8"?>
<svg id="_Слой_2" data-name="Слой 2" xmlns="http://www.w3.org/2000/svg" viewBox="0 0 213.45 214.73">
  <defs>
    <style>
      .cls-1 {
        opacity: .77;
      }

      .cls-1, .cls-2 {
        fill: #172c45;
      }

      .cls-3 {
        stroke: #172c45;
        stroke-width: 1.02px;
      }

      .cls-3, .cls-4, .cls-5 {
        fill: none;
        stroke-linecap: round;
        stroke-linejoin: round;
      }

      .cls-6 {
        fill: #fff;
      }

      .cls-7 {
        fill: #b4e2e0;
      }

      .cls-4 {
        stroke-width: .99px;
      }

      .cls-4, .cls-5 {
        stroke: #fdebe8;
      }

      .cls-8 {
        fill: #76b38a;
      }

      .cls-9 {
        fill: #fdc0cc;
      }

      .cls-5 {
        stroke-width: 1.3px;
      }

      .cls-10 {
        fill: #fdebe8;
      }

      .cls-11 {
        fill: #ffc368;
      }
    </style>
  </defs>
  <g id="OBJECTS">
    <g>
      <path class="cls-6" d="M106.72,214.73c-.72,0-1.43,0-2.15-.03-.05,0-.1,0-.15,0-.17,0-.34,0-.5-.01-.2,0-.39,0-.58-.01-1.1-.03-2.21-.09-3.32-.16-.58-.03-1.24-.07-1.91-.13-.04,0-.08,0-.11-.01-.12,0-.24-.02-.35-.04-.15-.02-.3-.03-.45-.04-.86-.07-1.68-.15-2.48-.25-.09,0-.18-.01-.26-.02-.54-.06-1.09-.14-1.64-.21l-.76-.1c-.66-.08-1.34-.19-2.01-.3-.4-.06-.82-.13-1.23-.21-.77-.12-1.55-.27-2.31-.41-.6-.12-1.2-.23-1.81-.37-.86-.17-1.71-.36-2.55-.56l-.82-.2c-.47-.11-.93-.23-1.4-.35-.28-.07-.55-.15-.82-.22-.59-.15-1.16-.32-1.74-.48-.8-.23-1.55-.45-2.29-.68-.82-.26-1.61-.52-2.39-.78-.7-.23-1.4-.48-2.1-.74-.11-.04-.56-.2-.66-.24-.65-.24-1.29-.49-1.93-.74-.61-.23-1.3-.52-1.99-.8-.88-.36-1.73-.72-2.57-1.1-.64-.28-1.35-.6-2.07-.95-.09-.04-.18-.08-.27-.12-.41-.19-.89-.43-1.37-.67l-.58-.29c-.76-.38-1.48-.75-2.18-1.12-.21-.11-.39-.22-.58-.32l-1.62-.9c-.42-.24-.85-.47-1.27-.72l-1.01-.59-.28-.17c-.94-.56-1.88-1.14-2.81-1.74-.38-.24-.76-.49-1.14-.74l-.14-.09c-.92-.61-1.81-1.22-2.7-1.85l-.63-.46c-.67-.48-1.33-.96-1.98-1.45l-.85-.65c-.57-.44-1.13-.87-1.68-1.31-.29-.23-.58-.47-.88-.71l-.11-.09c-.49-.4-.98-.81-1.46-1.22-.36-.31-.72-.61-1.07-.93-.44-.38-.87-.77-1.3-1.16-.38-.34-.76-.69-1.13-1.04-.39-.37-.79-.74-1.18-1.11l-.13-.12c-.34-.33-.69-.66-1.03-.99-.3-.3-.61-.61-.92-.93l-.48-.49c-.27-.28-.55-.56-.82-.84l-.06-.06c-.72-.75-1.39-1.48-2.06-2.22l-.26-.29c-1.68-1.86-3.34-3.86-4.9-5.89,0,0-.01-.02-.02-.03-.44-.57-.87-1.15-1.3-1.74l-.21-.29c-1.18-1.6-2.19-3.04-3.08-4.38-7.95-12.02-13.32-25.24-15.98-39.32-.62-3.29-1.08-6.59-1.38-9.82l-.06-.61c-.22-2.46-.36-4.96-.42-7.45,0-.04,0-.51-.01-.62-.02-.55-.02-1.11-.02-1.65,0-17.11,4.1-34.15,11.86-49.27,6.46-12.55,15.17-23.53,25.89-32.66,3.04-2.61,6.26-5.06,9.56-7.28.08-.06.16-.12.24-.17,1.35-.91,2.78-1.82,4.39-2.78.11-.08.23-.15.34-.22.79-.46,1.52-.88,2.25-1.29.59-.34,1.2-.67,1.83-1.01,4.25-2.3,8.82-4.37,13.6-6.14,2.43-.89,4.94-1.71,7.48-2.45,3.28-.93,6.5-1.69,9.64-2.27.15-.03.3-.06.45-.08,6.33-1.16,12.78-1.74,19.19-1.74.65,0,1.3,0,1.95.02h.02c.23,0,.54,0,.85.02,11.94.31,23.63,2.6,34.74,6.81,4.96,1.88,9.83,4.16,14.49,6.79,1.22-.26,2.44-.39,3.64-.39,2.93,0,5.66.8,7.9,2.33,3.33,2.26,5.53,5.92,6.55,10.89,0,0,0,0,0,0,.14.13.92.83.92.83.23.19.44.39.66.59,0,0,1.09,1.01,1.32,1.23.07,0,.13,0,.2,0,10.99,0,19.31,9.75,19.79,23.18.03.79,0,1.57-.06,2.35,1.3,2.31,2.5,4.66,3.6,7,3.8,8.1,6.58,16.71,8.26,25.58,1.14,6.11,1.77,12.36,1.85,18.61.02.51.02,1.02.02,1.54,0,.64,0,1.26-.02,1.9v.19c-.02,1.01-.06,1.99-.11,2.96-.08,1.72-.19,3.33-.33,4.84-.05.66-.12,1.31-.2,1.97-.02.2-.04.4-.06.61-.11,1.07-.27,2.25-.47,3.54-.12.83-.26,1.68-.41,2.53-1.47,8.58-4.02,17.02-7.58,25.05-1.97,4.48-4.29,8.89-6.91,13.1l-.16.24c-.03.06-.06.1-.1.16-.36.58-.71,1.13-1.08,1.68-.6.94-1.23,1.86-1.86,2.78-.02.03-.06.08-.08.11-.64.92-1.32,1.87-2.02,2.8-.05.07-.24.31-.28.36-.87,1.16-1.79,2.33-2.81,3.56l-.37.45c-.13.16-.27.33-.41.49-.21.25-.43.5-.65.75l-.61.7c-.34.4-.69.8-1.04,1.19,0,0-.29.33-.39.44l-.29.32c-.19.21-.38.42-.58.63,0,0-.09.1-.12.13-.56.61-1.15,1.23-1.85,1.93-.57.59-1.15,1.16-1.73,1.72-.05.04-.62.59-.62.59-.24.23-.49.46-.74.69-.58.55-1.17,1.1-1.76,1.64-.14.13-.34.31-.53.47-.28.25-.57.5-.86.75-.1.1-.21.19-.32.28-.54.46-1.08.92-1.62,1.36l-.45.36c-.62.51-1.24,1.02-1.88,1.5-.72.56-1.5,1.16-2.27,1.72l-.09.07c-.14.11-.28.21-.43.31-.71.53-1.42,1.03-2.15,1.53-.67.47-1.39.97-2.14,1.44-.84.56-1.76,1.16-2.72,1.74-.69.43-1.37.84-2.06,1.24,0,0-.56.33-.67.39-.23.14-.44.25-.59.33-.28.16-.57.32-.86.48l-.22.12c-.17.11-.34.2-.52.29,0,0-2.41,1.28-2.47,1.31-.12.06-.23.11-.35.16-.75.38-1.5.74-2.26,1.11l-.58.27c-.68.32-1.36.64-2.05.94-.45.2-.92.4-1.4.6-.35.15-.7.3-1.05.45-.05.02-.09.04-.14.06-.55.22-1.1.44-1.66.66,0,0-.94.37-.98.39-.59.22-1.19.44-1.8.65,0,0-1.18.43-1.22.44-1.53.52-2.82.94-4.05,1.31,0,0-.07.02-.11.03,0,0-.28.08-.41.12-.19.06-.35.11-.48.15-.09.03-.2.06-.32.09-.25.08-.51.14-.76.21l-.31.08c-.53.16-1.05.3-1.59.43h-.02c-.22.08-.45.14-.68.19-.14.04-.3.07-.47.1-.14.03-.28.07-.42.11-.1.03-.2.05-.3.08-.39.09-2.08.47-2.08.47l-.75.16c-.31.07-.64.13-.97.2-.23.05-.81.16-.86.17l-1.34.24c-.3.05-.59.1-.87.14h-.09c-.51.1-1.02.18-1.52.26-.1.02-.22.04-.34.06-.13.02-.26.04-.39.05l-.43.07c-.74.1-1.45.2-2.17.28l-1.35.18c-.08.01-1.01.09-1.01.09l-1.08.09c-.39.04-.83.07-1.26.1l-.88.07s-1.15.08-1.29.09c-.85.05-1.69.11-2.51.13-.05,0-.38,0-.38,0-.93.04-1.88.06-2.82.06h-.39Z"/>
      <g>
        <path class="cls-9" d="M207.15,107.38c0,.67,0,1.33-.02,2-.02.9-.05,1.81-.1,2.71-.07,1.56-.17,3.1-.32,4.64-.05.63-.11,1.26-.19,1.89,0,.16-.03.33-.05.5-.12,1.12-.27,2.24-.44,3.35-.12.8-.25,1.6-.39,2.4-1.42,8.28-3.86,16.21-7.16,23.66-1.89,4.3-4.07,8.42-6.52,12.37-.09.14-.18.28-.26.42-.32.52-.64,1.02-.98,1.52-.58.9-1.18,1.79-1.79,2.67-.64.92-1.3,1.83-1.97,2.73-.09.1-.16.21-.24.31-13.37,17.77-32.68,30.84-54.1,36.69-2.6.71-5.24,1.32-7.9,1.81-19.63,3.64-40.33,1.18-58.62-6.8-3.74-1.63-7.37-3.5-10.88-5.59-.96-.57-1.92-1.16-2.86-1.77-.42-.27-.83-.54-1.24-.81-6.35-4.19-12.18-9.09-17.41-14.58-.65-.68-1.28-1.36-1.91-2.06-.07-.08-.14-.15-.21-.23-1.62-1.8-3.18-3.67-4.66-5.59-1.53-1.97-2.99-4.01-4.37-6.09-7.31-11.05-12.53-23.59-15.08-37.11-.57-3.04-1.01-6.12-1.3-9.26-.02-.21-.04-.42-.06-.63-.21-2.31-.34-4.65-.39-7.01,0-.21-.01-.41-.01-.62-.02-.51-.02-1.02-.02-1.52,0-16.78,4.05-32.6,11.2-46.53,6.09-11.83,14.43-22.31,24.44-30.83,2.95-2.53,6.04-4.88,9.27-7.04h0c1.44-.98,2.91-1.9,4.4-2.79h0c.72-.43,1.44-.85,2.17-1.26.58-.33,1.16-.65,1.75-.97,4.11-2.23,8.4-4.15,12.82-5.79,2.33-.85,4.69-1.62,7.08-2.32,2.97-.84,5.99-1.56,9.05-2.13.1-.02.19-.04.29-.05,5.92-1.09,12.02-1.67,18.25-1.67.62,0,1.24.01,1.86.02.28,0,.55.01.82.02,11.51.3,22.54,2.55,32.77,6.42,6.74,2.55,13.13,5.8,19.1,9.69.21.14.43.27.65.44.05.02.11.06.16.09,1.54,1.03,3.05,2.08,4.52,3.19,1,.73,1.99,1.49,2.96,2.28.94.77,1.86,1.54,2.77,2.33.31.25.61.51.9.78.21.19.43.38.65.58.24.2.46.41.69.62.14.13.29.27.43.4,1.11,1.02,2.2,2.07,3.26,3.16.44.46.89.92,1.33,1.39.61.64,1.21,1.29,1.82,1.95.06.06.12.13.16.19.44.48.85.95,1.24,1.42.08.07.14.14.18.2.49.57.97,1.14,1.44,1.72.22.27.44.55.67.82.06.06.14.15.2.24.07.1.15.19.23.29.16.21.32.42.47.63,0,.01.02.02.03.02.06.06.1.11.14.18.45.58.91,1.17,1.34,1.77.07.06.12.13.16.21.92,1.24,1.8,2.5,2.65,3.78.39.57.76,1.14,1.13,1.72.69,1.07,1.37,2.18,2.03,3.29,1.59,2.7,3.06,5.48,4.39,8.34,3.56,7.59,6.2,15.69,7.81,24.17,1.07,5.72,1.67,11.63,1.75,17.66.02.45.02.91.02,1.37Z"/>
        <g>
          <g>
            <path class="cls-10" d="M156.69,20.5c3.16-1.44,7.09-1.91,9.96.04,2.32,1.57,3.48,4.39,4.04,7.13,1.29,6.3.11,12.81-1.07,19.12-.13.69-.26,1.39-.58,2.01-.64,1.23-1.94,1.98-3.26,2.42-5.25,1.73-11.2-.84-14.79-5.05-2.8-3.28-4.42-7.53-4.57-11.83-.14-3.89,1.77-6.89,4.42-9.67,1.66-1.74,3.66-3.17,5.85-4.17Z"/>
            <path class="cls-1" d="M156.69,20.5c3.16-1.44,7.09-1.91,9.96.04,2.32,1.57,3.48,4.39,4.04,7.13,1.29,6.3.11,12.81-1.07,19.12-.13.69-.26,1.39-.58,2.01-.64,1.23-1.94,1.98-3.26,2.42-5.25,1.73-11.2-.84-14.79-5.05-2.8-3.28-4.42-7.53-4.57-11.83-.14-3.89,1.77-6.89,4.42-9.67,1.66-1.74,3.66-3.17,5.85-4.17Z"/>
            <path class="cls-10" d="M191.7,161.32c-.32.52-.64,1.02-.98,1.52-1.2,1.85-2.45,3.65-3.76,5.4-.09.1-.16.21-.24.31-.91,1.21-1.85,2.4-2.81,3.56-.19.23-.38.46-.58.69-.84,1-1.7,1.98-2.58,2.95-.26.28-.5.56-.76.83-.07.07-.12.13-.18.19-.57.63-1.15,1.23-1.74,1.82-.53.55-1.07,1.08-1.61,1.6-.08.07-.16.15-.23.22-.35.33-.7.67-1.06,1-.57.54-1.14,1.07-1.72,1.6-.15.14-.31.28-.46.41-.31.28-.63.56-.96.83-.04.05-.07.08-.12.12-.52.45-1.05.89-1.57,1.32-.71.58-1.42,1.17-2.15,1.73-.71.55-1.45,1.12-2.18,1.66-.15.11-.3.23-.45.33-.67.5-1.34.98-2.03,1.45-.67.47-1.34.93-2.03,1.37-.86.57-1.72,1.13-2.6,1.66-.65.41-1.29.79-1.94,1.17-.25.14-.49.29-.74.43-.12.08-.26.15-.38.21-.42.25-.86.48-1.29.72-.05.02-.09.07-.13.08-.81.43-1.61.85-2.43,1.29-.05.02-.1.06-.16.07-.79.4-1.59.79-2.4,1.18-.81.38-1.62.77-2.44,1.13-.81.36-1.63.69-2.45,1.05-.81.33-1.64.65-2.47.98-.94.35-1.9.69-2.86,1.04-1.26.43-2.54.85-3.84,1.24-.02.01-.05.02-.07.02-.17.05-.33.1-.5.13-.12.06-.24.09-.36.12-.07.02-.14.05-.21.06-.39.12-.79.22-1.18.33-.47.14-.94.27-1.42.38-.14.04-.3.08-.45.13-.14.03-.27.07-.42.09-.3.07-.6.14-.91.23-.68.16-1.37.31-2.06.47-.22.05-.43.09-.66.14-.55.12-1.1.22-1.66.34-.43.08-.88.16-1.32.24-.44.08-.87.15-1.32.21-.15.04-.31.07-.47.08-.3.05-.61.11-.93.15,0,0-.02,0-.05,0-.57.1-1.15.17-1.73.24-.77.12-1.56.21-2.35.31-.82.07-1.65.16-2.47.21-.88.09-1.76.15-2.65.19-.77.05-1.55.1-2.32.12h-.36c-.89.04-1.79.06-2.69.06h-.39c-.73,0-1.45,0-2.17-.03-.14.01-.3,0-.44-.01-.18,0-.35,0-.53-.01-1.05-.03-2.11-.08-3.17-.15-.6-.03-1.2-.07-1.8-.12-.07-.01-.14-.01-.21-.02-.24-.03-.49-.05-.74-.07-.82-.07-1.64-.15-2.44-.25h-.07c-.77-.09-1.55-.2-2.33-.3-.63-.08-1.26-.18-1.88-.28-.36-.05-.74-.12-1.1-.19-.73-.11-1.47-.25-2.19-.39-.57-.11-1.13-.22-1.7-.35-.81-.16-1.61-.34-2.4-.53-.72-.18-1.43-.34-2.14-.53-.25-.06-.49-.13-.73-.2-.56-.14-1.11-.3-1.66-.46-.73-.21-1.46-.42-2.17-.64-.77-.24-1.52-.49-2.27-.74-.66-.22-1.31-.45-1.96-.69-.2-.07-.39-.15-.58-.21-.61-.23-1.22-.46-1.82-.7-.63-.24-1.26-.5-1.88-.76-.8-.33-1.6-.66-2.38-1.02-.7-.31-1.39-.62-2.09-.96-.04,0-.07-.03-.11-.05-.66-.31-1.31-.64-1.96-.96-.68-.34-1.37-.7-2.04-1.05-2.43-1.29-4.79-2.68-7.1-4.17-.42-.27-.83-.54-1.24-.81-7.13-4.71-13.62-10.31-19.32-16.64,10.77-7.93,28.91-21.44,36.79-28.16,9.56-8.15,21.21-15.83,35.71-32.64,3.06-3.55,6.25-7.51,9.57-11.96,0,0-1.05-.05-2.8-.2-8.54-.71-33.87-3.76-36.69-14.78-1.12-4.37-2.68-9.37-3.93-14.28-.05-.19-.1-.38-.15-.57-.77-3.1-1.41-6.16-1.73-8.98-.68-6.1.17-11.13,4.45-13.27.44-.22.89-.43,1.35-.63,9.7-4.41,25.2-7.2,25.2-7.2,0,0,10.9-16.34,30.98-17.02,17.16-.58,27.86,8.52,30.61,11.18l.42.42c.09.09.15.16.2.21h0c.05.07.08.1.08.1,0,0,15.36,21.12,15.36,21.15l.12.29,3.5,8.43c.3.71,5.91,14.09,8.25,38.22,1.68,17.26,2.35,42.27,2.6,55.57Z"/>
            <path class="cls-10" d="M188.93,165.51c-.64.92-1.3,1.83-1.97,2.73-.09.1-.16.21-.24.31-14.99,19.93-37.47,33.95-62,38.5-24.75,4.59-51.19-.51-72.36-14.16-.42-.27-.83-.54-1.24-.81-7.13-4.71-13.62-10.31-19.32-16.64-.07-.08-.14-.15-.21-.23,2.92-6.33,8.4-11.5,14.98-13.84,3.29-1.17,6.77-1.67,10.2-2.28,26.01-4.63,50.73-16.26,70.88-33.33,8.59-7.28,22.76-2.06,32.63,3.35,9.87,5.42,17.54,14.26,23.12,24.04,2.23,3.92,4.17,8.06,5.53,12.36Z"/>
            <path class="cls-1" d="M188.93,165.51c-.64.92-1.3,1.83-1.97,2.73-.09.1-.16.21-.24.31-14.99,19.93-37.47,33.95-62,38.5-24.75,4.59-51.19-.51-72.36-14.16-.42-.27-.83-.54-1.24-.81-7.13-4.71-13.62-10.31-19.32-16.64-.07-.08-.14-.15-.21-.23,2.92-6.33,8.4-11.5,14.98-13.84,3.29-1.17,6.77-1.67,10.2-2.28,26.01-4.63,50.73-16.26,70.88-33.33,8.59-7.28,22.76-2.06,32.63,3.35,9.87,5.42,17.54,14.26,23.12,24.04,2.23,3.92,4.17,8.06,5.53,12.36Z"/>
            <g>
              <g>
                <g>
                  <path class="cls-1" d="M98.37,49.12c-1.9,3.39-3.35,7.21-3.02,11.08.33,3.87,2.85,7.75,6.62,8.69,1.86.46,3.84.19,5.68-.35,6.13-1.79,11.34-6.77,12.97-12.95.62-2.37.72-4.94-.17-7.23-1.34-3.43-6.21-7.86-10.07-8.07-5.46-.3-9.62,4.54-12.02,8.83Z"/>
                  <circle class="cls-2" cx="105.35" cy="52.98" r="4.09"/>
                </g>
                <path class="cls-2" d="M77.97,54.21c-.27,1.48-1.66,2.44-2.57,3.64-.81,1.07-1.26,2.38-1.9,3.56-.66,1.23-1.7,2.51-3.17,2.72-.56.08-1.21,0-1.77-.26-.68-6.1.17-11.13,4.45-13.27.44-.22.89-.43,1.35-.63.03,0,.06,0,.09.02.97.27,1.91.72,2.6,1.46.69.73,1.09,1.77.92,2.76Z"/>
                <path class="cls-2" d="M85.8,65.21c-1.77,2.16-3.82,4.07-6.09,5.69-2.17,1.54-4.03,2.4-5.87,2.7-.44.07-.88.1-1.31.1-.72,0-1.42-.09-2.08-.28-.05-.19-.1-.38-.15-.57,1.05.35,2.25.45,3.46.25,1.76-.28,3.56-1.11,5.66-2.61,2.24-1.59,4.25-3.47,5.99-5.59.09-.11.24-.12.35-.04.11.09.12.25.04.35Z"/>
              </g>
              <path class="cls-1" d="M104.3,114.64c3.06-3.55,6.25-7.51,9.57-11.96,0,0-1.05-.05-2.8-.2,7.65-.23,15.25-2.04,22.18-5.29-8.44,7.65-17.9,15.17-28.95,17.45Z"/>
            </g>
          </g>
          <g>
            <path class="cls-2" d="M163.14,44.46l5.98,20.53s24.92,3.61,24.35-12.48c-.57-16.1-14.52-25.46-30.33-8.05Z"/>
            <path class="cls-10" d="M165.83,55.88c1.33-.86,3.02-1.15,4.56-.78.58.14,1.17.39,1.49.89.35.54.3,1.27.04,1.85-.26.59-.71,1.07-1.15,1.54,1.79-.94,4.21-.04,5.21,1.72,1,1.76.66,4.09-.54,5.71-1.21,1.62-3.16,2.58-5.16,2.9-1.75.28-3.68.07-5.08-1.02-1.35-1.05-2.05-2.78-2.19-4.49-.15-1.71.18-3.42.54-5.09"/>
          </g>
        </g>
        <g>
          <g>
            <path class="cls-8" d="M38.02,95.37c-1.5-2-4.42-2.08-6.67-3.16-3.6-1.72-5.29-5.9-6.08-9.81-1.53-7.55-.9-15.53,1.79-22.75,4.84,1.68,9.37,4.49,12.36,8.65,2.98,4.16,4.49,9.43,3.84,14.51-.57,4.49-3.12,8.56-5.23,12.56Z"/>
            <path class="cls-3" d="M42.5,113.19c-3.08-13.72-6.83-27.28-11.23-40.64"/>
          </g>
          <g>
            <path class="cls-8" d="M59.64,47.92c2.07-1.4,4.85-.52,7.34-.8,3.97-.45,6.93-3.84,8.96-7.28,3.92-6.63,5.94-14.38,5.76-22.08-5.12,0-10.33,1.17-14.51,4.13-4.18,2.96-7.32,7.44-8.38,12.45-.93,4.43.15,9.11.83,13.58Z"/>
            <path class="cls-3" d="M49.57,63.29c7.4-11.95,15.38-23.54,23.92-34.72"/>
          </g>
          <g>
            <path class="cls-8" d="M47.38,144.6c2.07-1.4,4.85-.52,7.34-.8,3.97-.45,6.93-3.84,8.96-7.28,3.92-6.63,5.94-14.38,5.76-22.08-5.12,0-10.33,1.17-14.51,4.13-4.18,2.96-7.32,7.44-8.38,12.45-.93,4.43.15,9.11.83,13.58Z"/>
            <path class="cls-3" d="M37.32,159.97c7.4-11.95,15.38-23.55,23.92-34.72"/>
          </g>
          <g>
            <path class="cls-8" d="M55.01,20.19c-.11,8.96-.4,17.92-.87,26.88-.01.17-.02.34-.03.51-.17,3.16-.37,6.31-.58,9.47h0c-.29,4.22-.62,8.42-.99,12.62-.02.19-.03.37-.06.56-.81,9.14-1.82,18.26-3.02,27.36-.02.18-.05.36-.08.54-.96,7.31-2.06,14.6-3.29,21.87h0c-.03.21-.06.41-.1.61h0c-1.96,11.61-4.23,23.16-6.83,34.64-.04.19-.08.39-.13.59-.17.73-.34,1.48-.51,2.21v.02c-1.5,6.5-3.1,12.98-4.81,19.43-.65-.68-1.28-1.36-1.91-2.06-.07-.08-.14-.15-.21-.23-1.62-1.8-3.18-3.67-4.66-5.59,2.03-6.82,3.9-13.68,5.63-20.58.06-.19.11-.38.15-.57,2.1-8.26,4-16.58,5.72-24.94.04-.18.08-.37.11-.55,1.01-4.89,1.95-9.79,2.82-14.7h0c.81-4.52,1.57-9.04,2.27-13.58.04-.18.06-.36.09-.54,1.11-7.2,2.1-14.42,2.96-21.66.02-.19.05-.37.06-.56.99-8.32,1.8-16.64,2.45-24.99h0c.02-.17.03-.34.03-.5.62-7.81,1.08-15.64,1.39-23.47h0c1.44-.98,2.91-1.9,4.4-2.79Z"/>
            <g>
              <path class="cls-10" d="M54.13,47.07l-.03.51c-1.65-.14-3.29-.35-4.92-.63h0c.02-.17.03-.34.03-.5,1.63.27,3.27.48,4.92.62Z"/>
              <path class="cls-10" d="M52.53,69.67c-.02.19-.03.37-.06.56-1.95.71-3.89,1.47-5.8,2.27.02-.19.05-.37.06-.56,1.91-.8,3.85-1.56,5.8-2.27Z"/>
              <path class="cls-10" d="M49.45,97.59c-.02.18-.05.36-.08.54-1.94-1.11-3.86-2.25-5.75-3.43.04-.18.06-.36.09-.54,1.89,1.19,3.8,2.33,5.74,3.43Z"/>
              <path class="cls-10" d="M46.08,120.01c-.03.2-.06.4-.1.6h0c-2.41,1.22-4.95,2.2-7.56,2.92.04-.18.08-.37.11-.55,2.61-.73,5.14-1.73,7.55-2.97Z"/>
              <path class="cls-10" d="M39.15,155.25c-.04.19-.08.39-.13.59l-6.47-6.8c.06-.19.11-.38.15-.57l6.45,6.78Z"/>
            </g>
          </g>
        </g>
        <g>
          <g>
            <path class="cls-8" d="M136.94,153.25c.7-2.4-.99-4.78-1.48-7.23-.79-3.91,1.53-7.77,4.18-10.76,5.11-5.76,11.86-10.06,19.25-12.25,1.57,4.87,2.05,10.19.52,15.08-1.53,4.89-4.83,9.25-9.28,11.79-3.93,2.25-8.72,2.65-13.18,3.37Z"/>
            <path class="cls-3" d="M125.38,167.54c9.11-10.71,17.69-21.86,25.72-33.41"/>
          </g>
          <g>
            <path class="cls-8" d="M119.42,180.12c2.36.81,3.34,3.56,5.05,5.38,2.74,2.9,7.24,3.23,11.2,2.78,7.66-.86,15.06-3.9,21.1-8.68-3.08-4.09-7.15-7.55-12.02-9.11-4.88-1.56-10.35-1.38-14.98.79-4.1,1.92-7.19,5.6-10.35,8.83Z"/>
            <path class="cls-3" d="M101.08,181.32c14-1.28,28.06-1.86,42.12-1.77"/>
          </g>
          <g>
            <path class="cls-8" d="M206.71,116.73c-.05.63-.11,1.26-.19,1.89,0,.16-.03.33-.05.5-.12,1.12-.27,2.24-.44,3.35-6.84,5.01-13.78,9.88-20.82,14.61-.14.1-.28.19-.42.29-6.13,4.11-12.33,8.12-18.6,12.02-.16.1-.31.2-.48.29-7.79,4.85-15.68,9.53-23.68,14.04-.15.09-.31.18-.48.26-6.41,3.63-12.9,7.13-19.45,10.52h0c-.18.11-.35.2-.54.29h0c-3.82,1.98-7.66,3.92-11.52,5.82-6.7,3.3-13.45,6.49-20.26,9.55-.18.08-.36.17-.55.25-6.96,3.12-13.99,6.13-21.06,9-.17.08-.35.16-.53.22-.51.21-1.02.41-1.53.62-3.74-1.63-7.37-3.5-10.88-5.59,4.51-1.53,9-3.13,13.47-4.79.17-.05.35-.12.51-.19,7.25-2.68,14.44-5.52,21.56-8.53.19-.06.37-.14.55-.22,7.86-3.29,15.65-6.77,23.36-10.43.17-.07.35-.15.51-.24,4.52-2.14,9-4.34,13.46-6.59,4.09-2.07,8.16-4.19,12.2-6.35.16-.07.32-.16.48-.25,6.42-3.44,12.79-6.99,19.09-10.66.16-.1.33-.18.48-.29,7.25-4.21,14.38-8.56,21.44-13.06h0c.14-.09.28-.18.41-.28,7.16-4.55,14.23-9.27,21.19-14.11.2-.13.39-.26.58-.4.73-.51,1.46-1.02,2.19-1.54Z"/>
            <g>
              <path class="cls-10" d="M206.52,118.62c0,.16-.03.33-.05.5-.84-.15-1.69-.3-2.53-.45.2-.13.39-.26.58-.4.67.12,1.33.23,2,.35Z"/>
              <path class="cls-10" d="M185.21,137.08c-.14.09-.28.19-.43.28-.88-1.4-1.7-2.84-2.45-4.31h0c.14-.09.28-.18.41-.28.76,1.46,1.58,2.9,2.46,4.3Z"/>
              <path class="cls-10" d="M166.19,149.39c-.16.1-.31.2-.48.29-1.74-1.13-3.51-2.22-5.3-3.27.16-.1.33-.18.48-.29,1.79,1.05,3.56,2.14,5.3,3.27Z"/>
              <path class="cls-10" d="M142.03,163.72c-.16.09-.32.18-.48.26-.28-2.22-.52-4.44-.72-6.66.17-.08.32-.17.49-.25.19,2.23.42,4.44.71,6.65Z"/>
              <path class="cls-10" d="M122.09,174.51c-.18.1-.36.19-.54.28h0c-2.42-1.19-4.73-2.63-6.87-4.28.17-.08.34-.16.51-.24,2.15,1.65,4.47,3.07,6.91,4.25Z"/>
              <path class="cls-10" d="M89.76,190.16c-.18.08-.36.17-.55.25l1.54-9.26c.19-.07.37-.14.55-.22l-1.54,9.23Z"/>
              <path class="cls-10" d="M68.15,199.41c-.17.08-.34.16-.52.22l1.05-9.76c.18-.05.35-.11.52-.19l-1.05,9.74Z"/>
            </g>
          </g>
        </g>
        <path class="cls-11" d="M132.83,204.19c-.06.35-.13.7-.21,1.05-2.6.71-5.24,1.32-7.9,1.81-24.75,4.59-51.19-.51-72.36-14.16-.42-.27-.83-.54-1.24-.81-7.13-4.71-13.62-10.31-19.32-16.64-.07-.08-.14-.15-.21-.23-3.29-3.66-6.3-7.57-9.03-11.68-7.31-11.05-12.53-23.59-15.08-37.11-.57-3.04-1.01-6.12-1.3-9.26-.02-.21-.04-.42-.06-.63,2.65,2.08,4.18,5.63,4.69,9.07.65,4.38.08,8.85.59,13.24,2.06-4.66,7.79-7.05,12.78-6.06,5,.98,9.12,4.81,11.4,9.36,2.28,4.55,2.92,9.77,2.86,14.86-.07,6.81-1.33,13.61-3.69,20,4.67-3.35,9.92-6.11,15.6-6.91,5.69-.8,11.88.59,16.01,4.58,5.03,4.86,6.16,12.48,5.97,19.47,4.69-8.52,12.33-15.55,21.53-18.7,9.2-3.14,19.92-2.12,27.91,3.43,7.98,5.56,12.74,15.74,11.06,25.32Z"/>
        <path class="cls-7" d="M207.15,107.38c0,.67,0,1.33-.02,2-.02.9-.05,1.81-.1,2.71-.07,1.56-.17,3.1-.32,4.64-.05.63-.11,1.26-.19,1.89,0,.16-.03.33-.05.5-.12,1.12-.27,2.24-.44,3.35-.12.8-.25,1.6-.39,2.4-2.44.34-4.89.46-6.97.6-6.34.42-12.74-.15-18.89-1.67-2.7-.66-5.46-1.56-7.39-3.55-1.94-1.98-2.73-5.33-1.08-7.56.95-1.3,2.51-1.98,4.01-2.56,3.11-1.17,6.32-2.07,9.59-2.66-6.46-.18-12.8-3.22-16.97-8.16-2.29-2.72-3.85-7-1.46-9.63.84-.92,2.01-1.43,3.2-1.8,6.42-1.94,13.28.37,19.6,2.66-3.6-3-7.77-5.35-10.9-8.84-3.14-3.48-5.07-8.65-3.06-12.89,1.15-2.43,3.43-4.17,5.91-5.22,4.5-1.92,9.71-1.75,14.34-.19.68.24,1.34.49,2,.78,3.56,7.59,6.2,15.69,7.81,24.17,1.07,5.72,1.67,11.63,1.75,17.66.02.45.02.91.02,1.37Z"/>
        <g>
          <g>
            <line class="cls-5" x1="81.52" y1="100.21" x2="81.52" y2="121.42"/>
            <line class="cls-5" x1="92.13" y1="110.81" x2="70.92" y2="110.81"/>
            <line class="cls-5" x1="76.47" y1="105.23" x2="87.08" y2="117.25"/>
            <line class="cls-5" x1="75.77" y1="116.54" x2="87.78" y2="105.94"/>
          </g>
          <g>
            <line class="cls-4" x1="40.22" y1="41.11" x2="40.22" y2="57.33"/>
            <line class="cls-4" x1="48.33" y1="49.22" x2="32.11" y2="49.22"/>
            <line class="cls-4" x1="36.36" y1="44.95" x2="44.47" y2="54.14"/>
            <line class="cls-4" x1="35.82" y1="53.6" x2="45.01" y2="45.49"/>
          </g>
          <g>
            <line class="cls-4" x1="98.43" y1="13.02" x2="98.43" y2="29.25"/>
            <line class="cls-4" x1="106.55" y1="21.14" x2="90.32" y2="21.14"/>
            <line class="cls-4" x1="94.57" y1="16.87" x2="102.68" y2="26.06"/>
            <line class="cls-4" x1="94.03" y1="25.52" x2="103.22" y2="17.41"/>
          </g>
          <g>
            <line class="cls-4" x1="168.9" y1="159.07" x2="168.9" y2="175.29"/>
            <line class="cls-4" x1="177.01" y1="167.18" x2="160.79" y2="167.18"/>
            <line class="cls-4" x1="165.04" y1="162.91" x2="173.15" y2="172.1"/>
            <line class="cls-4" x1="164.5" y1="171.56" x2="173.69" y2="163.45"/>
          </g>
          <g>
            <line class="cls-4" x1="25.41" y1="123.58" x2="25.41" y2="139.8"/>
            <line class="cls-4" x1="33.52" y1="131.69" x2="17.3" y2="131.69"/>
            <line class="cls-4" x1="21.55" y1="127.42" x2="29.66" y2="136.61"/>
            <line class="cls-4" x1="21.01" y1="136.07" x2="30.2" y2="127.96"/>
          </g>
        </g>
      </g>
    </g>
  </g>
</svg>